<?xml version="1.0" encoding="UTF-8" standalone="no"?>
<svg
   xmlns:dc="http://purl.org/dc/elements/1.1/"
   xmlns:cc="http://creativecommons.org/ns#"
   xmlns:rdf="http://www.w3.org/1999/02/22-rdf-syntax-ns#"
   xmlns:svg="http://www.w3.org/2000/svg"
   xmlns="http://www.w3.org/2000/svg"
   xmlns:sodipodi="http://sodipodi.sourceforge.net/DTD/sodipodi-0.dtd"
   xmlns:inkscape="http://www.inkscape.org/namespaces/inkscape"
   width="315.10001mm"
   height="215.10001mm"
   viewBox="0 0 315.10001 215.10001"
   version="1.1"
   id="svg1"
   inkscape:version="1.0.1 (3bc2e813f5, 2020-09-07)"
   sodipodi:docname="Suporte Gato v2 - corte.svg">
  <defs
     id="defs1">
    <inkscape:path-effect
       effect="mirror_symmetry"
       start_point="0,0"
       end_point="0,0"
       center_point="0,0"
       id="path-effect2"
       is_visible="true"
       lpeversion="0"
       mode="free"
       discard_orig_path="false"
       fuse_paths="false"
       oposite_fuse="false"
       split_items="false" />
    <inkscape:path-effect
       effect="clone_original"
       id="path-effect2768"
       is_visible="true"
       lpeversion="1"
       linkeditem=""
       method="d"
       attributes=""
       css_properties=""
       allow_transforms="true" />
    <inkscape:path-effect
       effect="mirror_symmetry"
       start_point="111.11667,9.5678945e-06"
       end_point="111.11667,100.22527"
       center_point="111.11667,50.11264"
       id="path-effect2766"
       is_visible="true"
       lpeversion="1"
       mode="free"
       discard_orig_path="false"
       fuse_paths="false"
       oposite_fuse="false"
       split_items="false" />
  </defs>
  <sodipodi:namedview
     id="base"
     pagecolor="#ffffff"
     bordercolor="#666666"
     borderopacity="1.0"
     inkscape:pageopacity="0.0"
     inkscape:pageshadow="2"
     inkscape:zoom="0.90509668"
     inkscape:cx="598.92323"
     inkscape:cy="216.13103"
     inkscape:document-units="mm"
     inkscape:current-layer="svg1"
     showgrid="false"
     inkscape:window-width="1918"
     inkscape:window-height="2071"
     inkscape:window-x="1912"
     inkscape:window-y="0"
     inkscape:window-maximized="0"
     inkscape:object-paths="false"
     inkscape:snap-smooth-nodes="true"
     inkscape:snap-midpoints="false"
     inkscape:snap-page="true"
     inkscape:snap-bbox="true"
     inkscape:bbox-paths="false"
     inkscape:bbox-nodes="true"
     inkscape:document-rotation="0"
     width="210mm"
     showguides="false"
     inkscape:guide-bbox="true"
     inkscape:snap-global="true"
     inkscape:snap-intersection-paths="false"
     inkscape:snap-bbox-edge-midpoints="false"
     inkscape:snap-bbox-midpoints="true"
     inkscape:snap-to-guides="false">
    <sodipodi:guide
       position="86.769445,157.55001"
       orientation="0,-1"
       id="guide220" />
    <sodipodi:guide
       position="52.550001,107.55001"
       orientation="0,1"
       id="guide295"
       inkscape:label=""
       inkscape:locked="false"
       inkscape:color="rgb(0,0,255)" />
    <sodipodi:guide
       position="157.55,157.55001"
       orientation="-1,0"
       id="guide326"
       inkscape:label=""
       inkscape:locked="false"
       inkscape:color="rgb(0,0,255)" />
  </sodipodi:namedview>
  <metadata
     id="metadata1">
    <rdf:RDF>
      <cc:Work
         rdf:about="">
        <dc:format>image/svg+xml</dc:format>
        <dc:type
           rdf:resource="http://purl.org/dc/dcmitype/StillImage" />
        <dc:title></dc:title>
      </cc:Work>
    </rdf:RDF>
  </metadata>
  <path
     id="path209"
     style="color:#000000;font-style:normal;font-variant:normal;font-weight:normal;font-stretch:normal;font-size:medium;line-height:normal;font-family:sans-serif;font-variant-ligatures:normal;font-variant-position:normal;font-variant-caps:normal;font-variant-numeric:normal;font-variant-alternates:normal;font-variant-east-asian:normal;font-feature-settings:normal;font-variation-settings:normal;text-indent:0;text-align:start;text-decoration:none;text-decoration-line:none;text-decoration-style:solid;text-decoration-color:#000000;letter-spacing:normal;word-spacing:normal;text-transform:none;writing-mode:lr-tb;direction:ltr;text-orientation:mixed;dominant-baseline:auto;baseline-shift:baseline;text-anchor:start;white-space:normal;shape-padding:0;shape-margin:0;inline-size:0;clip-rule:nonzero;display:inline;overflow:visible;visibility:visible;isolation:auto;mix-blend-mode:normal;color-interpolation:sRGB;color-interpolation-filters:linearRGB;solid-color:#000000;solid-opacity:1;vector-effect:none;fill:#000000;fill-opacity:1;fill-rule:nonzero;stroke:none;stroke-width:1.88976;stroke-linecap:butt;stroke-linejoin:round;stroke-miterlimit:4;stroke-dasharray:none;stroke-dashoffset:0;stroke-opacity:1;color-rendering:auto;image-rendering:auto;shape-rendering:auto;text-rendering:auto;enable-background:accumulate;stop-color:#000000"
     d="m 180.13504,35.65446 c 0.006,1.7e-4 0.01,3.6e-4 0.0115,6.7e-4 a 0.27641859,0.27641859 0 0 0 0.004,0 c 1.0625,-2e-5 1.93227,-0.86027 1.93218,-1.91733 0,-0.10334 -0.009,-0.20468 -0.0244,-0.30362 l 2.83569,-1.86804 c 0.6301,0.28244 1.07733,0.977 1.07733,1.80373 0,0.87026 -0.49523,1.59496 -1.17804,1.84567 v 0.58438 c 0.95353,-0.26831 1.66677,-1.25296 1.66677,-2.43005 0,-0.9082 -0.42549,-1.70036 -1.05743,-2.13885 l 0.0901,-0.0594 -0.0901,-0.0594 c 0.63194,-0.43848 1.05743,-1.23065 1.05743,-2.13884 0,-1.1771 -0.71324,-2.16174 -1.66677,-2.43004 v 0.58437 c 0.68281,0.25072 1.17804,0.97542 1.17804,1.84567 0,0.82672 -0.44723,1.5213 -1.07733,1.80373 l -2.83569,-1.86804 c 0.0159,-0.0989 0.0244,-0.20029 0.0244,-0.30361 -2.4e-4,-1.05678 -0.86989,-1.91747 -1.93218,-1.9175 a 0.27641859,0.27641859 0 0 0 -0.004,0 c -0.002,4e-5 -0.006,6.7e-4 -0.0115,6.7e-4 l 0.0159,0.55205 c 0.7664,10e-6 1.37954,0.60917 1.37949,1.3648 -1e-5,0.75557 -0.61314,1.36461 -1.37949,1.36463 -2.6e-4,-10e-6 -0.002,0 -0.002,0 l -0.0124,0.55286 c 0.005,8e-5 0.008,3e-5 0.006,0 a 0.27641859,0.27641859 0 0 0 0.009,0 c 0.63392,-10e-6 1.1991,-0.30649 1.55202,-0.77813 v 2.85363 c -0.35292,-0.47164 -0.9181,-0.77811 -1.55202,-0.77812 a 0.27641859,0.27641859 0 0 0 -0.009,0 c 9.6e-4,-4e-5 -6.4e-4,-8e-5 -0.006,0 l 0.0118,0.55271 c 7e-5,0 0.002,0 0.002,0 0.76635,10e-6 1.37947,0.6092 1.37948,1.36478 7e-5,0.75563 -0.61308,1.36462 -1.37948,1.36463 z m -22.5722,-4.4827 c 0,9.10675 7.39774,16.5045 16.50449,16.5045 0.0226,0 0.045,-6.3e-4 0.0678,-9.5e-4 3.07063,-0.0284 6.32682,0.83796 10.1717,-0.71856 3.63058,-1.46975 6.68286,-4.46216 8.24115,-9.44482 1.27213,-4.06762 1.70972,-9.63692 1.02592,-15.13121 -0.6838,-5.49431 -2.48544,-10.91971 -5.85597,-14.60987 -0.88888,-0.97314 -2.31471,-1.90599 -3.72827,-2.44311 -0.70675,-0.26855 -1.40749,-0.44061 -2.08333,-0.40841 -0.67584,0.0322 -1.39916,0.34793 -1.7497,1.01058 -0.59376,1.12244 -0.37013,2.30309 0.0605,3.19692 0.43053,0.89383 1.06207,1.59718 1.41342,2.00695 2.73395,3.18857 5.30265,5.76477 6.4353,9.7287 0.24107,0.84366 0.43683,1.71832 0.59385,2.59998 -2.77112,-5.2285 -8.26922,-8.79533 -14.59222,-8.79533 -9.10676,0 -16.5045,7.39775 -16.5045,16.5045 z m 1.42142,0 c 0,-8.33855 6.74452,-15.08306 15.08307,-15.08306 5.96774,0 11.11838,3.45484 13.56517,8.47587 -1.58123,-1.43029 -3.67603,-2.30273 -5.97057,-2.30273 -1.20982,0 -2.3639,0.24292 -3.41664,0.68183 -0.68109,-0.40748 -1.4756,-0.82653 -2.25736,-1.14214 -0.94293,-0.38067 -1.84618,-0.65374 -2.63571,-0.43486 l -0.21402,0.0598 -0.0913,0.20306 c -0.17775,0.39604 -0.23815,0.85504 -0.21841,1.34423 0.0197,0.48919 0.11955,1.008 0.26084,1.52444 0.20846,0.76186 0.51708,1.50684 0.93875,2.08464 -0.80926,1.34126 -1.27549,2.91175 -1.27549,4.58897 0,1.67723 0.46623,3.24748 1.27549,4.58865 -0.4217,0.57763 -0.73028,1.32226 -0.93875,2.08415 -0.14129,0.51644 -0.24109,1.03525 -0.26084,1.52444 -0.0198,0.48919 0.0407,0.94836 0.21841,1.34439 l 0.0913,0.20355 0.21402,0.0593 c 0.78953,0.21888 1.69278,-0.0543 2.63571,-0.43502 0.7817,-0.31557 1.57614,-0.73452 2.2572,-1.14198 1.05277,0.43889 2.20691,0.68183 3.4168,0.68183 2.29467,0 4.38962,-0.87244 5.97088,-2.30273 -2.44668,5.02132 -7.59754,8.47637 -13.56548,8.47637 -8.33855,0 -15.08307,-6.74435 -15.08307,-15.0829 z m 14.83578,8.26661 c -0.002,-0.39273 0.0508,-0.86012 0.18314,-1.34389 0.14599,-0.53362 0.36867,-1.05941 0.61245,-1.47759 0.71102,0.91793 1.5969,1.69407 2.60748,2.27726 -0.51218,0.28302 -1.06278,0.55564 -1.59005,0.7685 -0.72121,0.29117 -1.34686,0.40229 -1.75459,0.38932 -0.036,-0.16922 -0.0571,-0.37795 -0.0585,-0.6136 z m 0,-16.53404 c 9.6e-4,-0.23564 0.0225,-0.44438 0.0585,-0.61358 0.40772,-0.013 1.03338,0.0982 1.75459,0.3893 0.52721,0.21284 1.07776,0.48566 1.58988,0.76883 -1.01056,0.58328 -1.89631,1.35943 -2.60731,2.27743 -0.24378,-0.41836 -0.46646,-0.9443 -0.61245,-1.47791 -0.13235,-0.48377 -0.1854,-0.95133 -0.18315,-1.34407 z m 0.35405,8.26743 c 0,-4.14403 3.34378,-7.48848 7.48784,-7.48848 4.07927,0 7.38376,3.24065 7.48603,7.29472 9.7e-4,0.0601 0.002,0.12045 0.002,0.18086 a 0.71071957,0.71071957 0 0 0 0,0.0215 c -5e-5,0.062 -0.002,0.1236 -0.002,0.18543 -0.10251,4.05382 -3.40692,7.29374 -7.48603,7.29374 -4.14406,0 -7.48784,-3.3438 -7.48784,-7.48782 z m 6.23174,15.23994 c 5.89928,-2.46009 10.07047,-8.24745 10.16306,-15.01043 9.5e-4,-0.068 0.002,-0.13584 0.002,-0.20404 0.1442,-2.99329 -0.0924,-7.06143 -1.13921,-10.72524 -1.24349,-4.35182 -4.03215,-7.12476 -6.72276,-10.26279 -0.36442,-0.42503 -0.89424,-1.04008 -1.21168,-1.6991 -0.31742,-0.65901 -0.42821,-1.26585 -0.0846,-1.91554 0.091,-0.17203 0.1951,-0.23804 0.56071,-0.25546 0.36562,-0.0174 0.92031,0.0932 1.51089,0.31765 1.18116,0.44882 2.51833,1.34462 3.18354,2.0729 3.06881,3.35981 4.8353,8.52507 5.49507,13.82635 0.65978,5.30126 0.21594,10.73183 -0.97237,14.53149 -1.4512,4.64023 -4.14294,7.22574 -7.41813,8.55162 -1.16852,0.47305 -2.27869,0.68998 -3.36717,0.77259 z" />
  <path
     id="path717"
     style="color:#000000;font-style:normal;font-variant:normal;font-weight:normal;font-stretch:normal;font-size:medium;line-height:normal;font-family:sans-serif;font-variant-ligatures:normal;font-variant-position:normal;font-variant-caps:normal;font-variant-numeric:normal;font-variant-alternates:normal;font-variant-east-asian:normal;font-feature-settings:normal;font-variation-settings:normal;text-indent:0;text-align:start;text-decoration:none;text-decoration-line:none;text-decoration-style:solid;text-decoration-color:#000000;letter-spacing:normal;word-spacing:normal;text-transform:none;writing-mode:lr-tb;direction:ltr;text-orientation:mixed;dominant-baseline:auto;baseline-shift:baseline;text-anchor:start;white-space:normal;shape-padding:0;shape-margin:0;inline-size:0;clip-rule:nonzero;display:inline;overflow:visible;visibility:visible;isolation:auto;mix-blend-mode:normal;color-interpolation:sRGB;color-interpolation-filters:linearRGB;solid-color:#000000;solid-opacity:1;vector-effect:none;fill:#000000;fill-opacity:1;fill-rule:nonzero;stroke:none;stroke-width:1.88976;stroke-linecap:butt;stroke-linejoin:round;stroke-miterlimit:4;stroke-dasharray:none;stroke-dashoffset:0;stroke-opacity:1;color-rendering:auto;image-rendering:auto;shape-rendering:auto;text-rendering:auto;enable-background:accumulate;stop-color:#000000"
     d="m 180.13504,190.96946 c 0.006,1.7e-4 0.01,3.6e-4 0.0115,6.8e-4 a 0.27641859,0.27641859 0 0 0 0.004,0 c 1.0625,-3e-5 1.93227,-0.86028 1.93218,-1.91734 0,-0.10334 -0.009,-0.20468 -0.0244,-0.30362 l 2.83569,-1.86804 c 0.6301,0.28244 1.07733,0.977 1.07733,1.80373 0,0.87026 -0.49523,1.59496 -1.17804,1.84567 v 0.58438 c 0.95353,-0.26831 1.66677,-1.25296 1.66677,-2.43005 0,-0.9082 -0.42549,-1.70036 -1.05743,-2.13885 l 0.0901,-0.0594 -0.0901,-0.0594 c 0.63194,-0.43848 1.05743,-1.23065 1.05743,-2.13884 0,-1.1771 -0.71324,-2.16174 -1.66677,-2.43005 v 0.58438 c 0.68281,0.25071 1.17804,0.97542 1.17804,1.84567 0,0.82672 -0.44723,1.52129 -1.07733,1.80373 l -2.83569,-1.86804 c 0.0159,-0.0989 0.0244,-0.20029 0.0244,-0.30361 -2.4e-4,-1.05678 -0.86989,-1.91748 -1.93218,-1.9175 a 0.27641859,0.27641859 0 0 0 -0.004,0 c -0.002,3e-5 -0.006,6.6e-4 -0.0115,6.6e-4 l 0.0159,0.55206 c 0.7664,1e-5 1.37954,0.60917 1.37949,1.3648 -1e-5,0.75556 -0.61314,1.3646 -1.37949,1.36463 -2.6e-4,-1e-5 -0.002,0 -0.002,0 l -0.0124,0.55286 c 0.005,8e-5 0.008,3e-5 0.006,0 a 0.27641859,0.27641859 0 0 0 0.009,0 c 0.63392,-1e-5 1.1991,-0.30649 1.55202,-0.77814 v 2.85364 c -0.35292,-0.47164 -0.9181,-0.77811 -1.55202,-0.77812 a 0.27641859,0.27641859 0 0 0 -0.009,0 c 9.6e-4,-4e-5 -6.4e-4,-8e-5 -0.006,0 l 0.0118,0.5527 c 7e-5,0 0.002,0 0.002,0 0.76635,1e-5 1.37947,0.60921 1.37948,1.36479 7e-5,0.75563 -0.61308,1.36462 -1.37948,1.36463 z m -22.5722,-4.4827 c 0,9.10675 7.39774,16.50449 16.50449,16.50449 0.0226,0 0.045,-6.3e-4 0.0678,-9.4e-4 3.07063,-0.0284 6.32682,0.83795 10.1717,-0.71856 3.63058,-1.46975 6.68286,-4.46216 8.24115,-9.44482 1.27213,-4.06761 1.70972,-9.63692 1.02592,-15.13122 -0.6838,-5.4943 -2.48544,-10.91971 -5.85597,-14.60986 -0.88888,-0.97314 -2.31471,-1.906 -3.72827,-2.44311 -0.70675,-0.26856 -1.40749,-0.44061 -2.08333,-0.40841 -0.67584,0.0322 -1.39916,0.34793 -1.7497,1.01058 -0.59376,1.12244 -0.37013,2.30309 0.0605,3.19692 0.43053,0.89383 1.06207,1.59718 1.41342,2.00695 2.73395,3.18857 5.30265,5.76476 6.4353,9.72869 0.24107,0.84367 0.43683,1.71833 0.59385,2.59999 -2.77112,-5.2285 -8.26922,-8.79533 -14.59222,-8.79533 -9.10676,0 -16.5045,7.39774 -16.5045,16.5045 z m 1.42142,0 c 0,-8.33855 6.74452,-15.08306 15.08307,-15.08306 5.96774,0 11.11838,3.45484 13.56517,8.47587 -1.58123,-1.43029 -3.67603,-2.30273 -5.97057,-2.30273 -1.20982,0 -2.3639,0.24292 -3.41664,0.68183 -0.68109,-0.40748 -1.4756,-0.82653 -2.25736,-1.14214 -0.94293,-0.38068 -1.84618,-0.65374 -2.63571,-0.43486 l -0.21402,0.0598 -0.0913,0.20306 c -0.17775,0.39604 -0.23815,0.85504 -0.21841,1.34423 0.0197,0.48919 0.11955,1.008 0.26084,1.52444 0.20846,0.76186 0.51708,1.50685 0.93875,2.08464 -0.80926,1.34126 -1.27549,2.91176 -1.27549,4.58897 0,1.67723 0.46623,3.24748 1.27549,4.58866 -0.4217,0.57763 -0.73028,1.32225 -0.93875,2.08415 -0.14129,0.51644 -0.24109,1.03524 -0.26084,1.52444 -0.0198,0.48918 0.0407,0.94836 0.21841,1.34438 l 0.0913,0.20356 0.21402,0.0593 c 0.78953,0.21888 1.69278,-0.0543 2.63571,-0.43502 0.7817,-0.31558 1.57614,-0.73453 2.2572,-1.14198 1.05277,0.43888 2.20691,0.68182 3.4168,0.68182 2.29467,0 4.38962,-0.87243 5.97088,-2.30273 -2.44668,5.02132 -7.59754,8.47637 -13.56548,8.47637 -8.33855,0 -15.08307,-6.74434 -15.08307,-15.0829 z m 14.83578,8.26661 c -0.002,-0.39273 0.0508,-0.86012 0.18314,-1.34389 0.14599,-0.53362 0.36867,-1.05941 0.61245,-1.47759 0.71102,0.91793 1.5969,1.69407 2.60748,2.27726 -0.51218,0.28303 -1.06278,0.55564 -1.59005,0.7685 -0.72121,0.29117 -1.34686,0.40229 -1.75459,0.38932 -0.036,-0.16922 -0.0571,-0.37795 -0.0585,-0.6136 z m 0,-16.53404 c 9.6e-4,-0.23564 0.0225,-0.44438 0.0585,-0.61359 0.40772,-0.013 1.03338,0.0982 1.75459,0.38931 0.52721,0.21284 1.07776,0.48566 1.58988,0.76883 -1.01056,0.58328 -1.89631,1.35943 -2.60731,2.27743 -0.24378,-0.41836 -0.46646,-0.9443 -0.61245,-1.47791 -0.13235,-0.48377 -0.1854,-0.95133 -0.18315,-1.34407 z m 0.35405,8.26743 c 0,-4.14403 3.34378,-7.48848 7.48784,-7.48848 4.07927,0 7.38376,3.24065 7.48603,7.29472 9.7e-4,0.0601 0.002,0.12045 0.002,0.18086 a 0.71071957,0.71071957 0 0 0 0,0.0215 c -5e-5,0.062 -0.002,0.12361 -0.002,0.18543 -0.10251,4.05383 -3.40692,7.29374 -7.48603,7.29374 -4.14406,0 -7.48784,-3.34379 -7.48784,-7.48782 z m 6.23174,15.23994 c 5.89928,-2.46009 10.07047,-8.24745 10.16306,-15.01043 9.5e-4,-0.068 0.002,-0.13584 0.002,-0.20404 0.1442,-2.99328 -0.0924,-7.06143 -1.13921,-10.72524 -1.24349,-4.35182 -4.03215,-7.12477 -6.72276,-10.26279 -0.36442,-0.42504 -0.89424,-1.04008 -1.21168,-1.6991 -0.31742,-0.65902 -0.42821,-1.26585 -0.0846,-1.91554 0.091,-0.17203 0.1951,-0.23804 0.56071,-0.25546 0.36562,-0.0174 0.92031,0.0932 1.51089,0.31765 1.18116,0.44882 2.51833,1.34462 3.18354,2.0729 3.06881,3.3598 4.8353,8.52507 5.49507,13.82635 0.65978,5.30126 0.21594,10.73183 -0.97237,14.5315 -1.4512,4.64022 -4.14294,7.22572 -7.41813,8.55161 -1.16852,0.47305 -2.27869,0.68998 -3.36717,0.77259 z" />
  <path
     id="path1617"
     style="fill:none;stroke:#ff0000;stroke-width:0.1"
     d="m 114.44966,48.37494 v 4" />
  <path
     id="path1960"
     style="fill:none;stroke:#ff0000;stroke-width:0.1"
     d="m 120.54966,48.37494 v 4" />
  <path
     id="path1956"
     style="fill:none;stroke:#ff0000;stroke-width:0.1"
     d="m 114.44966,103.77662 v -4" />
  <path
     id="path1954"
     style="fill:none;stroke:#ff0000;stroke-width:0.1"
     d="m 120.54966,103.77662 v -4" />
  <path
     id="path1952"
     style="fill:none;stroke:#ff0000;stroke-width:0.1"
     d="m 124.73583,12.43264 c 0.72323,-1.98755 2.98952,-3.80339 4.7625,-3.80339 1.59451,0 3.26544,1.17986 4.07469,2.87735 0.21933,0.46009 0.37612,0.94501 0.47542,1.44073 -2.5549,-1.77651 -6.68462,-1.92338 -9.31261,-0.51469 v 0" />
  <path
     id="path1950"
     style="fill:none;stroke:#ff0000;stroke-width:0.1"
     d="m 124.4459,14.77513 c 2.79881,1.90281 7.091,1.55398 9.66917,0.3049 -0.12124,0.90048 -0.42909,1.77932 -0.9219,2.56159 -0.88931,1.41174 -1.21931,1.59348 -2.76263,1.52082 -2.79299,-0.13127 -4.67531,-1.22107 -5.54591,-3.21116 -0.21128,-0.48297 -0.35135,-0.84899 -0.43873,-1.17615 v 0" />
  <path
     id="path1944"
     style="fill:none;stroke:#ff0000;stroke-width:0.1"
     d="m 124.69297,34.59771 c 0.72323,1.98755 2.98952,3.80338 4.7625,3.80338 1.59451,0 3.26544,-1.17984 4.07469,-2.87733 0.21933,-0.4601 0.37612,-0.94502 0.47542,-1.44074 -2.5549,1.77652 -6.68462,1.92338 -9.31261,0.51469 v 0" />
  <path
     id="path1942"
     style="fill:none;stroke:#ff0000;stroke-width:0.1"
     d="m 124.40304,32.25523 c 2.79881,-1.90282 7.091,-1.55398 9.66917,-0.30492 -0.12124,-0.90048 -0.42909,-1.77932 -0.9219,-2.56159 -0.88931,-1.41173 -1.21931,-1.59347 -2.76263,-1.52081 -2.79299,0.13128 -4.67531,1.22108 -5.54591,3.21117 -0.21128,0.48296 -0.35135,0.84899 -0.43873,1.17615 v 0" />
  <path
     id="path1940"
     style="fill:none;stroke:#ff0000;stroke-width:0.1"
     d="m 203.62265,23.68093 v -8.09999 h -2.70086 v 8.09999 h 2.70086 v 0" />
  <path
     id="path1938"
     style="fill:none;stroke:#ff0000;stroke-width:0.1"
     d="m 203.62279,43.68047 v -8.10001 h -2.70086 v 8.10001 h 2.70086 v 0" />
  <path
     id="path1936"
     style="fill:none;stroke:#ff0000;stroke-width:0.1"
     d="m 191.37238,9.63072 h 8.1 V 6.92985 h -8.1 v 2.70087 0" />
  <path
     id="path1934"
     style="fill:none;stroke:#ff0000;stroke-width:0.1"
     d="m 165.2732,9.63072 h 8.1 V 6.92985 h -8.1 v 2.70087 0" />
  <path
     id="path1932"
     style="fill:none;stroke:#ff0000;stroke-width:0.1"
     d="m 191.37238,52.33157 h 8.1 v -2.70086 h -8.1 v 2.70086 0" />
  <path
     id="path1930"
     style="fill:none;stroke:#ff0000;stroke-width:0.1"
     d="m 165.2732,52.33157 h 8.1 v -2.70086 h -8.1 v 2.70086 0" />
  <path
     id="path1928"
     style="fill:none;stroke:#ff0000;stroke-width:0.1"
     d="m 182.90149,145.21986 h -4" />
  <path
     id="path1926"
     style="fill:none;stroke:#ff0000;stroke-width:0.1"
     d="m 182.90149,151.31986 h -4" />
  <path
     id="path1922"
     style="fill:none;stroke:#ff0000;stroke-width:0.1"
     d="m 127.49981,126.22074 0.89917,0.29972 h 1.80144 v 17.39946 h -1.80144 l -0.89917,0.29972" />
  <path
     id="path1920"
     style="fill:none;stroke:#ff0000;stroke-width:0.1"
     d="m 182.90149,119.12055 h -4" />
  <path
     id="path1918"
     style="fill:none;stroke:#ff0000;stroke-width:0.1"
     d="m 182.90149,125.22055 h -4" />
  <path
     id="path1916"
     style="fill:none;stroke:#ff0000;stroke-width:0.1"
     d="m 127.49981,145.21986 h 4" />
  <path
     id="path1914"
     style="fill:none;stroke:#ff0000;stroke-width:0.1"
     d="m 127.49981,151.31986 h 4" />
  <path
     id="path1912"
     style="fill:none;stroke:#ff0000;stroke-width:0.1"
     d="m 127.49981,119.12055 h 4" />
  <path
     id="path1910"
     style="fill:none;stroke:#ff0000;stroke-width:0.1"
     d="m 127.49981,125.22055 h 4" />
  <path
     id="path1908"
     style="fill:none;stroke:#ff0000;stroke-width:0.1"
     d="m 182.90149,89.77976 h -4" />
  <path
     id="path1906"
     style="fill:none;stroke:#ff0000;stroke-width:0.1"
     d="m 182.90149,95.87976 h -4" />
  <path
     id="path1904"
     style="fill:none;stroke:#ff0000;stroke-width:0.1"
     d="m 134.12473,58.5301 -3.92431,-10e-6 v 3.85055 h -1.80144 l -0.89917,0.29972" />
  <path
     id="path1896"
     style="fill:none;stroke:#ff0000;stroke-width:0.1"
     d="m 134.12473,113.97019 h -3.92431 v 3.85055 h -1.80144 l -0.89917,0.29972" />
  <path
     id="path1965"
     style="fill:none;stroke:#ff0000;stroke-width:0.1"
     d="m 127.49981,96.87983 0.89917,0.29972 h 1.80144 v 3.85055 l 3.92431,-1e-5" />
  <path
     id="path1894"
     style="fill:none;stroke:#ff0000;stroke-width:0.1"
     d="m 127.49981,70.78064 0.89917,0.29972 h 1.80144 v 17.39946 h -1.80144 l -0.89917,0.29972" />
  <path
     id="path1892"
     style="fill:none;stroke:#ff0000;stroke-width:0.1"
     d="m 182.90149,63.68045 h -4" />
  <path
     id="path1890"
     style="fill:none;stroke:#ff0000;stroke-width:0.1"
     d="m 182.90149,69.78046 h -4" />
  <path
     id="path1888"
     style="fill:none;stroke:#ff0000;stroke-width:0.1"
     d="m 127.49981,89.77976 h 4" />
  <path
     id="path1886"
     style="fill:none;stroke:#ff0000;stroke-width:0.1"
     d="m 127.49981,95.87976 h 4" />
  <path
     id="path1884"
     style="fill:none;stroke:#ff0000;stroke-width:0.1"
     d="m 127.49981,63.68045 h 4" />
  <path
     id="path1882"
     style="fill:none;stroke:#ff0000;stroke-width:0.1"
     d="m 127.49981,69.78046 h 4" />
  <path
     id="path1880"
     style="fill:none;stroke:#ff0000;stroke-width:0.1"
     d="m 114.44966,111.22338 v 4" />
  <path
     id="path1878"
     style="fill:none;stroke:#ff0000;stroke-width:0.1"
     d="m 120.54966,111.22338 v 4" />
  <path
     id="path1874"
     style="fill:none;stroke:#ff0000;stroke-width:0.1"
     d="m 114.44966,166.62506 v -4" />
  <path
     id="path1872"
     style="fill:none;stroke:#ff0000;stroke-width:0.1"
     d="m 120.54966,166.62506 v -4" />
  <path
     id="path3098"
     style="fill:none;stroke:#ff0000;stroke-width:0.1"
     d="m 208.99955,214.99999 -102.99962,0" />
  <path
     id="path3136"
     style="fill:none;stroke:#ff0000;stroke-width:0.1"
     d="M 209.99999,0.99994 V 214.00005" />
  <path
     id="path3118"
     style="fill:none;stroke:#ff0000;stroke-width:0.1"
     d="M 105.99993,0 H 208.99955" />
  <path
     id="path3108"
     style="fill:none;stroke:#ff0000;stroke-width:0.1"
     d="M 105,214.00005 V 0.99993" />
  <path
     id="path1868"
     style="fill:none;stroke:#ff0000;stroke-width:0.1"
     d="m 124.73583,202.56737 c 0.72323,1.98755 2.98952,3.80338 4.7625,3.80338 1.59451,0 3.26544,-1.17985 4.07469,-2.87734 0.21933,-0.46009 0.37612,-0.94501 0.47542,-1.44074 -2.5549,1.77652 -6.68462,1.92339 -9.31261,0.5147 v 0" />
  <path
     id="path1866"
     style="fill:none;stroke:#ff0000;stroke-width:0.1"
     d="m 124.4459,200.22488 c 2.79881,-1.90281 7.091,-1.55398 9.66917,-0.30491 -0.12124,-0.90048 -0.42909,-1.77932 -0.9219,-2.56159 -0.88931,-1.41174 -1.21931,-1.59348 -2.76263,-1.52082 -2.79299,0.13128 -4.67531,1.22108 -5.54591,3.21117 -0.21128,0.48297 -0.35135,0.84899 -0.43873,1.17615 v 0" />
  <path
     id="path1864"
     style="fill:none;stroke:#ff0000;stroke-width:0.1"
     d="m 124.69297,180.40229 c 0.72323,-1.98755 2.98952,-3.80338 4.7625,-3.80338 1.59451,0 3.26544,1.17985 4.07469,2.87734 0.21933,0.46009 0.37612,0.94501 0.47542,1.44074 -2.5549,-1.77652 -6.68462,-1.92339 -9.31261,-0.5147 v 0" />
  <path
     id="path1862"
     style="fill:none;stroke:#ff0000;stroke-width:0.1"
     d="m 171.3116,101.0301 h 8.88887 v -3.85055 h 1.80144 l 0.89917,-0.29972 v -8.10028 l -0.89917,-0.29972 h -1.80144 v -8.20777" />
  <path
     id="path2103"
     style="fill:none;stroke:#ff0000;stroke-width:0.1"
     d="m 134.62444,101.0301 h 36.18694" />
  <path
     id="path2101"
     style="fill:none;stroke:#ff0000;stroke-width:0.1"
     d="M 170.81137,113.97019 H 134.62444" />
  <path
     id="path2097"
     style="fill:none;stroke:#ff0000;stroke-width:0.1"
     d="m 180.20047,133.92932 v -7.40886 h 1.80144 l 0.89917,-0.29972 v -8.10028 l -0.89917,-0.29972 h -1.80144 v -3.85055 h -8.88887" />
  <path
     id="path1981"
     style="fill:none;stroke:#ff0000;stroke-width:0.1"
     d="m 127.49981,152.31992 0.89917,0.29972 h 1.80144 v 3.85055 h 3.92431" />
  <path
     id="path2047"
     style="fill:none;stroke:#ff0000;stroke-width:0.1"
     d="m 107.49999,139.17447 v 24.74991 0 h 5.64979 v 1.80144 l 0.29972,0.89917 h 3.31143" />
  <path
     id="path3172"
     style="fill:none;stroke:#ff0000;stroke-width:0.1"
     d="m 116.76093,111.22372 h -3.31143 l -0.29972,0.89917 v 1.80144 h -5.64979 v 24.75043" />
  <path
     id="path2043"
     style="fill:none;stroke:#ff0000;stroke-width:0.1"
     d="m 117.26116,166.62499 h 4.28863 l 0.29972,-0.89917 v -1.80144 h 5.6503 v -50.00005 h -5.6503 v -1.80144 l -0.29972,-0.89917 h -4.28863" />
  <path
     id="path2037"
     style="fill:none;stroke:#ff0000;stroke-width:0.1"
     d="m 117.25326,171.37261 c 4.1023,-1.22361 8.74492,-2.12694 11.9608,-1.85077 1.80569,0.15507 3.43695,0.39452 4.92783,0.73089" />
  <path
     id="path2033"
     style="fill:none;stroke:#ff0000;stroke-width:0.1"
     d="m 116.79607,190.77325 0.0108,-5.44153 c -3.20653,-3.42911 -6.60542,-5.03076 -9.26455,-9.34567 l 1.10484,-0.94258 c 1.12681,-0.96143 4.34213,-2.35943 8.0904,-3.51451" />
  <path
     id="path2027"
     style="fill:none;stroke:#ff0000;stroke-width:0.1"
     d="m 127.44304,212.49964 c -7.00922,0.0261 -15.56621,-1.36803 -18.52732,-3.32133 l -1.41572,-0.93428 0.78187,-1.48984 c 0.43012,-0.81959 2.51882,-3.41739 4.64106,-5.77276 l 3.85868,-4.28244 0.0124,-4.89014 0.001,-0.53589" />
  <path
     id="path1986"
     style="fill:none;stroke:#ff0000;stroke-width:0.1"
     d="m 157.06794,207.28741 c -3.40478,-1.50749 -6.90174,-2.73404 -11.71811,-2.59667 l -1.47743,1.77406 c -1.99496,2.39527 -6.68428,4.8645 -10.59781,5.58054 -1.52485,0.27899 -3.35137,0.42236 -5.31655,0.44977" />
  <path
     id="path1991"
     style="fill:none;stroke:#ff0000;stroke-width:0.1"
     d="m 185.02371,210.92871 c -3.49793,0.58731 -6.93478,1.11473 -12.41296,1.28561 -6.57503,-0.50461 -10.78428,-2.78338 -15.04409,-4.70398" />
  <path
     id="path1996"
     style="fill:none;stroke:#ff0000;stroke-width:0.1"
     d="m 205.92387,184.36768 c -0.64169,1.07603 -1.32024,1.28853 -0.82826,1.58716 1.40183,0.85098 2.31263,3.46932 2.33062,6.10661 0.0152,2.2243 -0.64777,4.50231 -1.75133,5.34075 l -0.94929,0.72141 0.95343,0.72501 c 1.15011,0.87384 1.74398,2.94902 1.74719,5.0545 0.004,1.91788 -0.48125,3.86061 -1.47848,4.94231 -1.13302,1.22904 -0.89716,1.21528 -6.24819,0.36123 -1.29298,-0.2064 -5.0574,0.1764 -11.09131,1.12758 -1.07736,0.16982 -2.09271,0.34281 -3.09507,0.51203" />
  <path
     id="path2001"
     style="fill:none;stroke:#ff0000;stroke-width:0.1"
     d="m 201.71924,144.19726 c -0.5235,3.98652 -0.0936,8.33972 1.72634,13.98874 2.97877,6.14632 3.97896,11.31893 3.98065,17.90433 -0.0114,2.69401 -0.34224,5.08759 -0.99168,7.12825 -0.0823,0.2586 -0.17401,0.48915 -0.27042,0.69535" />
  <path
     id="path2010"
     style="fill:none;stroke:#ff0000;stroke-width:0.1"
     d="m 107.49999,76.326047 v 24.749903 0 h 5.64979 v 1.80144 l 0.29972,0.89917 h 3.31143" />
  <path
     id="path3178"
     style="fill:none;stroke:#ff0000;stroke-width:0.1"
     d="m 116.76093,48.375302 h -3.31143 l -0.29972,0.89916 v 1.80145 h -5.64979 v 24.749905" />
  <path
     id="path2059"
     style="fill:none;stroke:#ff0000;stroke-width:0.1"
     d="m 117.26116,103.77656 h 4.28863 l 0.29972,-0.89917 v -1.80144 h 5.6503 V 51.07591 h -5.6503 v -1.80145 l -0.29972,-0.89916 h -4.28863" />
  <path
     id="path2057"
     style="fill:none;stroke:#ff0000;stroke-width:0.1"
     d="m 117.25327,43.6274 c 4.1023,1.22361 8.74491,2.12693 11.96079,1.85077 1.80569,-0.15506 3.43696,-0.39452 4.92783,-0.73089" />
  <path
     id="path2022"
     style="fill:none;stroke:#ff0000;stroke-width:0.1"
     d="m 116.79649,24.43347 0.0104,5.23483 c -3.20654,3.42911 -6.60543,5.03076 -9.26456,9.34567 l 1.10484,0.94258 c 1.12682,0.96144 4.34215,2.35944 8.09044,3.51452" />
  <path
     id="path2156"
     style="fill:none;stroke:#ff0000;stroke-width:0.1"
     d="m 127.44305,2.50039 c -7.00923,-0.0261 -15.56621,1.36802 -18.52732,3.32133 L 107.5,6.756 l 0.78187,1.48984 c 0.43012,0.81959 2.51882,3.41739 4.64106,5.77276 l 3.85868,4.28244 0.0124,4.89014 0.002,0.74258" />
  <path
     id="path2161"
     style="fill:none;stroke:#ff0000;stroke-width:0.1"
     d="m 157.06804,7.71258 c -3.40482,1.50751 -6.90179,2.73408 -11.7182,2.59671 L 143.87241,8.53523 C 141.87745,6.13996 137.18813,3.67073 133.2746,2.95469 131.74974,2.6757 129.92323,2.53232 127.95804,2.50492" />
  <path
     id="path2142"
     style="fill:none;stroke:#ff0000;stroke-width:0.1"
     d="M 185.02376,4.07132 C 181.52582,3.484 178.08895,2.95659 172.61076,2.7857 166.03579,3.2903 161.82656,5.56904 157.56679,7.48963" />
  <path
     id="path2137"
     style="fill:none;stroke:#ff0000;stroke-width:0.1"
     d="m 205.90951,30.6084 c -0.63739,-1.05527 -1.30221,-1.26682 -0.8139,-1.56322 1.40183,-0.85098 2.31263,-3.46932 2.33062,-6.10661 0.0152,-2.2243 -0.64777,-4.50231 -1.75133,-5.34075 l -0.9493,-0.72141 0.95344,-0.72501 c 1.15011,-0.87384 1.74398,-2.94902 1.74719,-5.0545 0.004,-1.91788 -0.48125,-3.86061 -1.47848,-4.94231 -1.13302,-1.22904 -0.89716,-1.21528 -6.24819,-0.36123 -1.29298,0.2064 -5.0574,-0.1764 -11.09131,-1.12758 -1.07738,-0.16983 -2.09273,-0.34281 -3.0951,-0.51203" />
  <path
     id="path2132"
     style="fill:none;stroke:#ff0000;stroke-width:0.1"
     d="m 201.71924,70.80276 c -0.5235,-3.98652 -0.0936,-8.33972 1.72634,-13.98875 2.97877,-6.14631 3.97896,-11.31893 3.98065,-17.90433 -0.0114,-2.694 -0.34224,-5.08758 -0.99168,-7.12824 -0.0862,-0.2708 -0.18267,-0.51083 -0.28408,-0.72435" />
  <path
     id="path2081"
     style="fill:none;stroke:#ff0000;stroke-width:0.1"
     d="m 198.41236,105.17215 c 5.54114,-2.46067 9.01935,-6.36198 9.01457,-10.16409 l 0.006,-8.8868 c -2.75262,-5.5938 -4.90347,-9.96029 -5.64326,-14.82155" />
  <path
     id="path2079"
     style="fill:none;stroke:#ff0000;stroke-width:0.1"
     d="m 188.75787,71.30199 c 0.42864,5.67951 2.08005,10.76811 4.51385,15.05389 1.75879,3.09714 0.78081,6.18666 -2.42219,7.30253 -8.60667,2.99844 -11.22456,6.23367 -9.73676,10.16091 1.9958,5.26818 10.51942,3.46834 12.66732,2.93228 1.47025,-0.36694 2.85362,-0.82764 4.13372,-1.3643" />
  <path
     id="path2075"
     style="fill:none;stroke:#ff0000;stroke-width:0.1"
     d="M 170.81137,58.5301 H 134.62444" />
  <path
     id="path2127"
     style="fill:none;stroke:#ff0000;stroke-width:0.1"
     d="m 180.20047,79.77235 v -8.69198 h 1.80144 l 0.89917,-0.29972 v -8.10028 l -0.89917,-0.29972 h -1.80144 V 58.5301 h -8.88887" />
  <path
     id="path2125"
     style="fill:none;stroke:#ff0000;stroke-width:0.1"
     d="m 171.28639,57.59525 c 1.29094,0.22185 2.66435,0.38068 4.1306,0.47639 4.07978,0.2663 7.45123,-0.51169 12.18841,-1.37183 1.37624,-0.24989 2.64216,-0.66404 2.87114,-0.66404 -1.53069,5.22575 -2.03931,10.18469 -1.75306,14.76749" />
  <path
     id="path2121"
     style="fill:none;stroke:#ff0000;stroke-width:0.1"
     d="m 134.64278,44.62932 c 3.37621,-0.82922 6.0218,-2.1846 8.35804,-4.22112 l 1.62574,-1.41749 c 6.98776,1.96231 7.64622,4.45033 10.47057,8.37742 3.87963,5.3944 8.47126,8.77962 15.67556,10.1347" />
  <path
     id="path2020"
     style="fill:none;stroke:#ff0000;stroke-width:0.1"
     d="m 198.41236,109.82786 c 5.54114,2.46067 9.01935,6.36199 9.01457,10.16409 l 0.006,8.8868 c -2.75271,5.59399 -4.9036,9.96059 -5.64333,14.82206" />
  <path
     id="path2016"
     style="fill:none;stroke:#ff0000;stroke-width:0.1"
     d="m 188.75787,143.69802 c 0.42864,-5.6795 2.08005,-10.76811 4.51385,-15.05389 1.75879,-3.09714 0.78081,-6.18666 -2.42219,-7.30253 -8.60667,-2.99844 -11.22456,-6.23366 -9.73676,-10.16091 1.9958,-5.26817 10.51942,-3.46834 12.66732,-2.93228 1.47025,0.36694 2.85362,0.82764 4.13372,1.3643" />
  <path
     id="path2006"
     style="fill:none;stroke:#ff0000;stroke-width:0.1"
     d="m 171.3116,156.47019 h 8.88887 v -3.85055 h 1.80144 l 0.89917,-0.29972 v -8.10028 l -0.89917,-0.29972 h -1.80144 v -9.49089" />
  <path
     id="path2115"
     style="fill:none;stroke:#ff0000;stroke-width:0.1"
     d="m 134.62444,156.47019 h 36.18694" />
  <path
     id="path2113"
     style="fill:none;stroke:#ff0000;stroke-width:0.1"
     d="m 171.2863,157.40477 c 1.29097,-0.22185 2.6644,-0.38069 4.13069,-0.4764 4.07978,-0.2663 7.45123,0.51169 12.18841,1.37183 1.37624,0.24989 2.64216,0.66404 2.87114,0.66404 -1.53075,-5.22594 -2.03935,-10.18506 -1.75302,-14.768" />
  <path
     id="path2109"
     style="fill:none;stroke:#ff0000;stroke-width:0.1"
     d="m 134.64278,170.3707 c 3.37621,0.82921 6.0218,2.18459 8.35804,4.22111 l 1.62574,1.41749 c 6.98776,-1.96231 7.64622,-4.45033 10.47057,-8.37742 3.87964,-5.39441 8.47127,-8.77963 15.67559,-10.13471" />
  <path
     id="path1860"
     style="fill:none;stroke:#ff0000;stroke-width:0.1"
     d="m 124.40304,182.74478 c 2.79881,1.90281 7.091,1.55398 9.66917,0.30491 -0.12124,0.90048 -0.42909,1.77932 -0.9219,2.56159 -0.88931,1.41174 -1.21931,1.59348 -2.76263,1.52082 -2.79299,-0.13128 -4.67531,-1.22108 -5.54591,-3.21117 -0.21128,-0.48297 -0.35135,-0.84899 -0.43873,-1.17615 v 0" />
  <path
     id="path1858"
     style="fill:none;stroke:#ff0000;stroke-width:0.1"
     d="m 203.62265,191.31907 v 8.1 h -2.70086 v -8.1 h 2.70086 v 0" />
  <path
     id="path1856"
     style="fill:none;stroke:#ff0000;stroke-width:0.1"
     d="m 203.62279,171.31954 v 8.1 h -2.70086 v -8.1 h 2.70086 v 0" />
  <path
     id="path1854"
     style="fill:none;stroke:#ff0000;stroke-width:0.1"
     d="m 191.37238,205.36929 h 8.1 v 2.70086 h -8.1 v -2.70086 0" />
  <path
     id="path1852"
     style="fill:none;stroke:#ff0000;stroke-width:0.1"
     d="m 165.2732,205.36929 h 8.1 v 2.70086 h -8.1 v -2.70086 0" />
  <path
     id="path1850"
     style="fill:none;stroke:#ff0000;stroke-width:0.1"
     d="m 191.37238,162.66843 h 8.1 v 2.70086 h -8.1 v -2.70086 0" />
  <path
     id="path1848"
     style="fill:none;stroke:#ff0000;stroke-width:0.1"
     d="m 165.2732,162.66843 h 8.1 v 2.70086 h -8.1 v -2.70086 0" />
  <path
     id="path2431"
     style="color:#000000;font-style:normal;font-variant:normal;font-weight:normal;font-stretch:normal;font-size:medium;line-height:normal;font-family:sans-serif;font-variant-ligatures:normal;font-variant-position:normal;font-variant-caps:normal;font-variant-numeric:normal;font-variant-alternates:normal;font-variant-east-asian:normal;font-feature-settings:normal;font-variation-settings:normal;text-indent:0;text-align:start;text-decoration:none;text-decoration-line:none;text-decoration-style:solid;text-decoration-color:#000000;letter-spacing:normal;word-spacing:normal;text-transform:none;writing-mode:lr-tb;direction:ltr;text-orientation:mixed;dominant-baseline:auto;baseline-shift:baseline;text-anchor:start;white-space:normal;shape-padding:0;shape-margin:0;inline-size:0;clip-rule:nonzero;display:inline;overflow:visible;visibility:visible;isolation:auto;mix-blend-mode:normal;color-interpolation:sRGB;color-interpolation-filters:linearRGB;solid-color:#000000;solid-opacity:1;vector-effect:none;fill:#000000;fill-opacity:1;fill-rule:nonzero;stroke:none;stroke-width:1.88976;stroke-linecap:butt;stroke-linejoin:round;stroke-miterlimit:4;stroke-dasharray:none;stroke-dashoffset:0;stroke-opacity:1;color-rendering:auto;image-rendering:auto;shape-rendering:auto;text-rendering:auto;enable-background:accumulate;stop-color:#000000"
     d="m 75.13504,35.65446 c 0.006,1.7e-4 0.01,3.6e-4 0.0115,6.7e-4 a 0.27641859,0.27641859 0 0 0 0.004,0 c 1.0625,-2e-5 1.93227,-0.86027 1.93218,-1.91733 0,-0.10334 -0.009,-0.20468 -0.0244,-0.30362 l 2.83569,-1.86804 c 0.6301,0.28244 1.07733,0.977 1.07733,1.80373 0,0.87026 -0.49523,1.59496 -1.17804,1.84567 v 0.58438 c 0.95353,-0.26831 1.66677,-1.25296 1.66677,-2.43005 0,-0.9082 -0.42549,-1.70036 -1.05743,-2.13885 l 0.0901,-0.0594 -0.0901,-0.0594 c 0.63194,-0.43848 1.05743,-1.23065 1.05743,-2.13884 0,-1.1771 -0.71324,-2.16174 -1.66677,-2.43004 v 0.58437 c 0.68281,0.25072 1.17804,0.97542 1.17804,1.84567 0,0.82672 -0.44723,1.5213 -1.07733,1.80373 l -2.83569,-1.86804 c 0.0159,-0.0989 0.0244,-0.20029 0.0244,-0.30361 -2.4e-4,-1.05678 -0.86989,-1.91747 -1.93218,-1.9175 a 0.27641859,0.27641859 0 0 0 -0.004,0 c -0.002,4e-5 -0.006,6.7e-4 -0.0115,6.7e-4 l 0.0159,0.55205 c 0.7664,10e-6 1.37954,0.60917 1.37949,1.3648 -10e-6,0.75557 -0.61314,1.36461 -1.37949,1.36463 -2.6e-4,-10e-6 -0.002,0 -0.002,0 l -0.0124,0.55286 c 0.005,8e-5 0.008,3e-5 0.006,0 a 0.27641859,0.27641859 0 0 0 0.009,0 c 0.63392,-10e-6 1.1991,-0.30649 1.55202,-0.77813 v 2.85363 c -0.35292,-0.47164 -0.9181,-0.77811 -1.55202,-0.77812 a 0.27641859,0.27641859 0 0 0 -0.009,0 c 9.6e-4,-4e-5 -6.4e-4,-8e-5 -0.006,0 l 0.0118,0.55271 c 7e-5,0 0.002,0 0.002,0 0.76635,10e-6 1.37947,0.6092 1.37948,1.36478 7e-5,0.75563 -0.61308,1.36462 -1.37948,1.36463 z m -22.5722,-4.4827 c 0,9.10675 7.39774,16.5045 16.50449,16.5045 0.0226,0 0.045,-6.3e-4 0.0678,-9.5e-4 3.07063,-0.0284 6.32682,0.83796 10.1717,-0.71856 3.63058,-1.46975 6.68286,-4.46216 8.24115,-9.44482 C 88.82011,33.44431 89.2577,27.87501 88.5739,22.38072 87.8901,16.88641 86.08846,11.46101 82.71793,7.77085 81.82905,6.79771 80.40322,5.86486 78.98966,5.32774 78.28291,5.05919 77.58217,4.88713 76.90633,4.91933 c -0.67584,0.0322 -1.39916,0.34793 -1.7497,1.01058 -0.59376,1.12244 -0.37013,2.30309 0.0605,3.19692 0.43053,0.89383 1.06207,1.59718 1.41342,2.00695 2.73395,3.18857 5.30265,5.76477 6.4353,9.7287 0.24107,0.84366 0.43683,1.71832 0.59385,2.59998 -2.77112,-5.2285 -8.26922,-8.79533 -14.59222,-8.79533 -9.10676,0 -16.5045,7.39775 -16.5045,16.5045 z m 1.42142,0 c 0,-8.33855 6.74452,-15.08306 15.08307,-15.08306 5.96774,0 11.11838,3.45484 13.56517,8.47587 -1.58123,-1.43029 -3.67603,-2.30273 -5.97057,-2.30273 -1.20982,0 -2.3639,0.24292 -3.41664,0.68183 -0.68109,-0.40748 -1.4756,-0.82653 -2.25736,-1.14214 -0.94293,-0.38067 -1.84618,-0.65374 -2.63571,-0.43486 l -0.21402,0.0598 -0.0913,0.20306 c -0.17775,0.39604 -0.23815,0.85504 -0.21841,1.34423 0.0197,0.48919 0.11955,1.008 0.26084,1.52444 0.20846,0.76186 0.51708,1.50684 0.93875,2.08464 -0.80926,1.34126 -1.27549,2.91175 -1.27549,4.58897 0,1.67723 0.46623,3.24748 1.27549,4.58865 -0.4217,0.57763 -0.73028,1.32226 -0.93875,2.08415 -0.14129,0.51644 -0.24109,1.03525 -0.26084,1.52444 -0.0198,0.48919 0.0407,0.94836 0.21841,1.34439 l 0.0913,0.20355 0.21402,0.0593 c 0.78953,0.21888 1.69278,-0.0543 2.63571,-0.43502 0.7817,-0.31557 1.57614,-0.73452 2.2572,-1.14198 1.05277,0.43889 2.20691,0.68183 3.4168,0.68183 2.29467,0 4.38962,-0.87244 5.97088,-2.30273 -2.44668,5.02132 -7.59754,8.47637 -13.56548,8.47637 -8.33855,0 -15.08307,-6.74435 -15.08307,-15.0829 z m 14.83578,8.26661 c -0.002,-0.39273 0.0508,-0.86012 0.18314,-1.34389 0.14599,-0.53362 0.36867,-1.05941 0.61245,-1.47759 0.71102,0.91793 1.5969,1.69407 2.60748,2.27726 -0.51218,0.28302 -1.06278,0.55564 -1.59005,0.7685 -0.72121,0.29117 -1.34686,0.40229 -1.75459,0.38932 -0.036,-0.16922 -0.0571,-0.37795 -0.0585,-0.6136 z m 0,-16.53404 c 9.6e-4,-0.23564 0.0225,-0.44438 0.0585,-0.61358 0.40772,-0.013 1.03338,0.0982 1.75459,0.3893 0.52721,0.21284 1.07776,0.48566 1.58988,0.76883 -1.01056,0.58328 -1.89631,1.35943 -2.60731,2.27743 -0.24378,-0.41836 -0.46646,-0.9443 -0.61245,-1.47791 -0.13235,-0.48377 -0.1854,-0.95133 -0.18315,-1.34407 z m 0.35405,8.26743 c 0,-4.14403 3.34378,-7.48848 7.48784,-7.48848 4.07927,0 7.38376,3.24065 7.48603,7.29472 9.7e-4,0.0601 0.002,0.12045 0.002,0.18086 a 0.71071957,0.71071957 0 0 0 0,0.0215 c -5e-5,0.062 -0.002,0.1236 -0.002,0.18543 -0.10251,4.05382 -3.40692,7.29374 -7.48603,7.29374 -4.14406,0 -7.48784,-3.3438 -7.48784,-7.48782 z m 6.23174,15.23994 c 5.89928,-2.46009 10.07047,-8.24745 10.16306,-15.01043 9.5e-4,-0.068 0.002,-0.13584 0.002,-0.20404 0.1442,-2.99329 -0.0924,-7.06143 -1.13921,-10.72524 C 83.18819,16.12017 80.39953,13.34723 77.70892,10.2092 77.3445,9.78417 76.81468,9.16912 76.49724,8.5101 76.17982,7.85109 76.06903,7.24425 76.41264,6.59456 c 0.091,-0.17203 0.1951,-0.23804 0.56071,-0.25546 0.36562,-0.0174 0.92031,0.0932 1.51089,0.31765 1.18116,0.44882 2.51833,1.34462 3.18354,2.0729 3.06881,3.35981 4.8353,8.52507 5.49507,13.82635 0.65978,5.30126 0.21594,10.73183 -0.97237,14.53149 -1.4512,4.64023 -4.14294,7.22574 -7.41813,8.55162 -1.16852,0.47305 -2.27869,0.68998 -3.36717,0.77259 z" />
  <path
     id="path2433"
     style="color:#000000;font-style:normal;font-variant:normal;font-weight:normal;font-stretch:normal;font-size:medium;line-height:normal;font-family:sans-serif;font-variant-ligatures:normal;font-variant-position:normal;font-variant-caps:normal;font-variant-numeric:normal;font-variant-alternates:normal;font-variant-east-asian:normal;font-feature-settings:normal;font-variation-settings:normal;text-indent:0;text-align:start;text-decoration:none;text-decoration-line:none;text-decoration-style:solid;text-decoration-color:#000000;letter-spacing:normal;word-spacing:normal;text-transform:none;writing-mode:lr-tb;direction:ltr;text-orientation:mixed;dominant-baseline:auto;baseline-shift:baseline;text-anchor:start;white-space:normal;shape-padding:0;shape-margin:0;inline-size:0;clip-rule:nonzero;display:inline;overflow:visible;visibility:visible;isolation:auto;mix-blend-mode:normal;color-interpolation:sRGB;color-interpolation-filters:linearRGB;solid-color:#000000;solid-opacity:1;vector-effect:none;fill:#000000;fill-opacity:1;fill-rule:nonzero;stroke:none;stroke-width:1.88976;stroke-linecap:butt;stroke-linejoin:round;stroke-miterlimit:4;stroke-dasharray:none;stroke-dashoffset:0;stroke-opacity:1;color-rendering:auto;image-rendering:auto;shape-rendering:auto;text-rendering:auto;enable-background:accumulate;stop-color:#000000"
     d="m 75.13504,190.96946 c 0.006,1.7e-4 0.01,3.6e-4 0.0115,6.7e-4 a 0.27641859,0.27641859 0 0 0 0.004,0 c 1.0625,-2e-5 1.93227,-0.86027 1.93218,-1.91733 0,-0.10334 -0.009,-0.20468 -0.0244,-0.30362 l 2.83569,-1.86804 c 0.6301,0.28244 1.07733,0.977 1.07733,1.80373 0,0.87026 -0.49523,1.59496 -1.17804,1.84567 v 0.58438 c 0.95353,-0.26831 1.66677,-1.25296 1.66677,-2.43005 0,-0.9082 -0.42549,-1.70036 -1.05743,-2.13885 l 0.0901,-0.0594 -0.0901,-0.0594 c 0.63194,-0.43848 1.05743,-1.23065 1.05743,-2.13884 0,-1.1771 -0.71324,-2.16174 -1.66677,-2.43005 v 0.58438 c 0.68281,0.25071 1.17804,0.97542 1.17804,1.84567 0,0.82672 -0.44723,1.52129 -1.07733,1.80373 l -2.83569,-1.86804 c 0.0159,-0.0989 0.0244,-0.20029 0.0244,-0.30362 -2.4e-4,-1.05677 -0.86989,-1.91747 -1.93218,-1.91749 a 0.27641859,0.27641859 0 0 0 -0.004,0 c -0.002,3e-5 -0.006,6.6e-4 -0.0115,6.6e-4 l 0.0159,0.55206 c 0.7664,1e-5 1.37954,0.60916 1.37949,1.3648 -10e-6,0.75556 -0.61314,1.3646 -1.37949,1.36462 -2.6e-4,-1e-5 -0.002,0 -0.002,0 l -0.0124,0.55287 c 0.005,8e-5 0.008,3e-5 0.006,0 a 0.27641859,0.27641859 0 0 0 0.009,0 c 0.63392,-1e-5 1.1991,-0.3065 1.55202,-0.77814 v 2.85364 c -0.35292,-0.47164 -0.9181,-0.77811 -1.55202,-0.77812 a 0.27641859,0.27641859 0 0 0 -0.009,0 c 9.6e-4,-4e-5 -6.4e-4,-8e-5 -0.006,0 l 0.0118,0.5527 c 7e-5,0 0.002,0 0.002,0 0.76635,1e-5 1.37947,0.60921 1.37948,1.36479 7e-5,0.75563 -0.61308,1.36462 -1.37948,1.36463 z m -22.5722,-4.4827 c 0,9.10675 7.39774,16.50449 16.50449,16.50449 0.0226,0 0.045,-6.3e-4 0.0678,-9.4e-4 3.07063,-0.0284 6.32682,0.83795 10.1717,-0.71856 3.63058,-1.46975 6.68286,-4.46216 8.24115,-9.44482 1.27213,-4.06762 1.70972,-9.63692 1.02592,-15.13122 -0.6838,-5.4943 -2.48544,-10.91971 -5.85597,-14.60986 -0.88888,-0.97314 -2.31471,-1.906 -3.72827,-2.44311 -0.70675,-0.26856 -1.40749,-0.44061 -2.08333,-0.40841 -0.67584,0.0322 -1.39916,0.34793 -1.7497,1.01058 -0.59376,1.12244 -0.37013,2.30309 0.0605,3.19692 0.43053,0.89383 1.06207,1.59718 1.41342,2.00695 2.73395,3.18857 5.30265,5.76476 6.4353,9.72869 0.24107,0.84366 0.43683,1.71833 0.59385,2.59999 -2.77112,-5.2285 -8.26922,-8.79533 -14.59222,-8.79533 -9.10676,0 -16.5045,7.39774 -16.5045,16.5045 z m 1.42142,0 c 0,-8.33855 6.74452,-15.08306 15.08307,-15.08306 5.96774,0 11.11838,3.45484 13.56517,8.47587 -1.58123,-1.43029 -3.67603,-2.30273 -5.97057,-2.30273 -1.20982,0 -2.3639,0.24292 -3.41664,0.68183 -0.68109,-0.40748 -1.4756,-0.82653 -2.25736,-1.14214 -0.94293,-0.38068 -1.84618,-0.65374 -2.63571,-0.43486 l -0.21402,0.0598 -0.0913,0.20306 c -0.17775,0.39603 -0.23815,0.85503 -0.21841,1.34423 0.0197,0.48919 0.11955,1.008 0.26084,1.52444 0.20846,0.76186 0.51708,1.50684 0.93875,2.08464 -0.80926,1.34126 -1.27549,2.91175 -1.27549,4.58897 0,1.67723 0.46623,3.24748 1.27549,4.58866 -0.4217,0.57763 -0.73028,1.32225 -0.93875,2.08415 -0.14129,0.51643 -0.24109,1.03524 -0.26084,1.52444 -0.0198,0.48918 0.0407,0.94836 0.21841,1.34438 l 0.0913,0.20355 0.21402,0.0593 c 0.78953,0.21889 1.69278,-0.0543 2.63571,-0.43501 0.7817,-0.31558 1.57614,-0.73453 2.2572,-1.14198 1.05277,0.43888 2.20691,0.68182 3.4168,0.68182 2.29467,0 4.38962,-0.87244 5.97088,-2.30273 -2.44668,5.02132 -7.59754,8.47637 -13.56548,8.47637 -8.33855,0 -15.08307,-6.74434 -15.08307,-15.0829 z m 14.83578,8.26661 c -0.002,-0.39273 0.0508,-0.86012 0.18314,-1.34389 0.14599,-0.53362 0.36867,-1.05941 0.61245,-1.47759 0.71102,0.91793 1.5969,1.69407 2.60748,2.27726 -0.51218,0.28302 -1.06278,0.55564 -1.59005,0.7685 -0.72121,0.29117 -1.34686,0.40229 -1.75459,0.38932 -0.036,-0.16922 -0.0571,-0.37795 -0.0585,-0.6136 z m 0,-16.53404 c 9.6e-4,-0.23564 0.0225,-0.44438 0.0585,-0.61359 0.40772,-0.013 1.03338,0.0982 1.75459,0.38931 0.52721,0.21284 1.07776,0.48566 1.58988,0.76883 -1.01056,0.58328 -1.89631,1.35943 -2.60731,2.27743 -0.24378,-0.41836 -0.46646,-0.9443 -0.61245,-1.47791 -0.13235,-0.48377 -0.1854,-0.95133 -0.18315,-1.34407 z m 0.35405,8.26743 c 0,-4.14403 3.34378,-7.48848 7.48784,-7.48848 4.07927,0 7.38376,3.24065 7.48603,7.29472 9.7e-4,0.0601 0.002,0.12045 0.002,0.18086 a 0.71071957,0.71071957 0 0 0 0,0.0215 c -5e-5,0.062 -0.002,0.12361 -0.002,0.18543 -0.10251,4.05383 -3.40692,7.29374 -7.48603,7.29374 -4.14406,0 -7.48784,-3.34379 -7.48784,-7.48782 z m 6.23174,15.23993 c 5.89928,-2.46008 10.07047,-8.24744 10.16306,-15.01042 9.5e-4,-0.068 0.002,-0.13584 0.002,-0.20404 0.1442,-2.99329 -0.0924,-7.06143 -1.13921,-10.72524 -1.24349,-4.35182 -4.03215,-7.12477 -6.72276,-10.26279 -0.36442,-0.42504 -0.89424,-1.04008 -1.21168,-1.6991 -0.31742,-0.65902 -0.42821,-1.26586 -0.0846,-1.91554 0.091,-0.17203 0.1951,-0.23804 0.56071,-0.25546 0.36562,-0.0174 0.92031,0.0932 1.51089,0.31765 1.18116,0.44882 2.51833,1.34462 3.18354,2.0729 3.06881,3.3598 4.8353,8.52507 5.49507,13.82635 0.65978,5.30126 0.21594,10.73183 -0.97237,14.53149 -1.4512,4.64023 -4.14294,7.22573 -7.41813,8.55162 -1.16852,0.47305 -2.27869,0.68998 -3.36717,0.77258 z" />
  <path
     id="path2435"
     style="fill:none;stroke:#ff0000;stroke-width:0.1"
     d="m 9.4496596,48.37494 v 4" />
  <path
     id="path2437"
     style="fill:none;stroke:#ff0000;stroke-width:0.1"
     d="m 15.54966,48.37494 v 4" />
  <path
     id="path2439"
     style="fill:none;stroke:#ff0000;stroke-width:0.1"
     d="m 9.4496596,103.77662 v -4" />
  <path
     id="path2441"
     style="fill:none;stroke:#ff0000;stroke-width:0.1"
     d="m 15.54966,103.77662 v -4" />
  <path
     id="path2443"
     style="fill:none;stroke:#ff0000;stroke-width:0.1"
     d="m 19.735829,12.43264 c 0.72323,-1.98755 2.989521,-3.80339 4.7625,-3.80339 1.59451,0 3.26544,1.17986 4.07469,2.87735 0.21933,0.46009 0.37612,0.94501 0.47542,1.44073 -2.5549,-1.77651 -6.68462,-1.92338 -9.31261,-0.51469 v 0" />
  <path
     id="path2445"
     style="fill:none;stroke:#ff0000;stroke-width:0.1"
     d="m 19.445899,14.77513 c 2.798811,1.90281 7.091,1.55398 9.66917,0.3049 -0.12124,0.90048 -0.42909,1.77932 -0.9219,2.56159 -0.88931,1.41174 -1.21931,1.59348 -2.76263,1.52082 -2.79299,-0.13127 -4.675309,-1.22107 -5.54591,-3.21116 -0.211279,-0.48297 -0.35135,-0.84899 -0.43873,-1.17615 v 0" />
  <path
     id="path2447"
     style="fill:none;stroke:#ff0000;stroke-width:0.1"
     d="m 19.69297,34.59771 c 0.72323,1.98755 2.989519,3.80338 4.762499,3.80338 1.59451,0 3.26544,-1.17984 4.07469,-2.87733 0.21933,-0.4601 0.37612,-0.94502 0.475421,-1.44074 -2.554901,1.77652 -6.68462,1.92338 -9.31261,0.51469 v 0" />
  <path
     id="path2449"
     style="fill:none;stroke:#ff0000;stroke-width:0.1"
     d="m 19.40304,32.25523 c 2.798809,-1.90282 7.090999,-1.55398 9.66917,-0.30492 -0.121241,-0.90048 -0.42909,-1.77932 -0.9219,-2.56159 -0.889311,-1.41173 -1.219311,-1.59347 -2.762631,-1.52081 -2.792989,0.13128 -4.67531,1.22108 -5.545909,3.21117 -0.211281,0.48296 -0.35135,0.84899 -0.43873,1.17615 v 0" />
  <path
     id="path2451"
     style="fill:none;stroke:#ff0000;stroke-width:0.1"
     d="m 98.622656,23.68093 v -8.09999 h -2.700862 v 8.09999 h 2.700862 v 0" />
  <path
     id="path2453"
     style="fill:none;stroke:#ff0000;stroke-width:0.1"
     d="m 98.622796,43.68047 v -8.10001 h -2.700862 v 8.10001 h 2.700862 v 0" />
  <path
     id="path2455"
     style="fill:none;stroke:#ff0000;stroke-width:0.1"
     d="m 86.372378,9.63072 h 8.1 V 6.92985 h -8.1 v 2.70087 0" />
  <path
     id="path2457"
     style="fill:none;stroke:#ff0000;stroke-width:0.1"
     d="m 60.273199,9.63072 h 8.099999 V 6.92985 h -8.099999 v 2.70087 0" />
  <path
     id="path2459"
     style="fill:none;stroke:#ff0000;stroke-width:0.1"
     d="m 86.372378,52.33157 h 8.1 v -2.70086 h -8.1 v 2.70086 0" />
  <path
     id="path2461"
     style="fill:none;stroke:#ff0000;stroke-width:0.1"
     d="m 60.273199,52.33157 h 8.099999 v -2.70086 h -8.099999 v 2.70086 0" />
  <path
     id="path2463"
     style="fill:none;stroke:#ff0000;stroke-width:0.1"
     d="m 77.901489,145.21986 h -4" />
  <path
     id="path2465"
     style="fill:none;stroke:#ff0000;stroke-width:0.1"
     d="m 77.901489,151.31986 h -4" />
  <path
     id="path2467"
     style="fill:none;stroke:#ff0000;stroke-width:0.1"
     d="m 22.499812,126.22074 0.899167,0.29972 h 1.801443 v 17.39946 h -1.801443 l -0.899167,0.29972" />
  <path
     id="path2469"
     style="fill:none;stroke:#ff0000;stroke-width:0.1"
     d="m 77.901489,119.12055 h -4" />
  <path
     id="path2471"
     style="fill:none;stroke:#ff0000;stroke-width:0.1"
     d="m 77.901489,125.22055 h -4" />
  <path
     id="path2473"
     style="fill:none;stroke:#ff0000;stroke-width:0.1"
     d="m 22.49981,145.21986 h 4" />
  <path
     id="path2475"
     style="fill:none;stroke:#ff0000;stroke-width:0.1"
     d="m 22.49981,151.31986 h 4.000001" />
  <path
     id="path2477"
     style="fill:none;stroke:#ff0000;stroke-width:0.1"
     d="m 22.49981,119.12055 h 4" />
  <path
     id="path2479"
     style="fill:none;stroke:#ff0000;stroke-width:0.1"
     d="m 22.49981,125.22055 h 4.000001" />
  <path
     id="path2481"
     style="fill:none;stroke:#ff0000;stroke-width:0.1"
     d="m 77.901489,89.77976 h -4" />
  <path
     id="path2483"
     style="fill:none;stroke:#ff0000;stroke-width:0.1"
     d="m 77.901489,95.87976 h -4" />
  <path
     id="path2485"
     style="fill:none;stroke:#ff0000;stroke-width:0.1"
     d="m 29.124729,58.5301 -3.924307,-10e-6 v 3.85055 h -1.801443 l -0.899167,0.29972" />
  <path
     id="path2487"
     style="fill:none;stroke:#ff0000;stroke-width:0.1"
     d="m 29.124729,113.97019 h -3.924308 v 3.85055 h -1.801442 l -0.899168,0.29972" />
  <path
     id="path2489"
     style="fill:none;stroke:#ff0000;stroke-width:0.1"
     d="m 22.499811,96.87983 0.899168,0.29972 h 1.801442 v 3.85055 l 3.924308,-1e-5" />
  <path
     id="path2491"
     style="fill:none;stroke:#ff0000;stroke-width:0.1"
     d="m 22.499812,70.78064 0.899167,0.29972 h 1.801443 v 17.39946 h -1.801443 l -0.899167,0.29972" />
  <path
     id="path2493"
     style="fill:none;stroke:#ff0000;stroke-width:0.1"
     d="m 77.901489,63.68045 h -4" />
  <path
     id="path2495"
     style="fill:none;stroke:#ff0000;stroke-width:0.1"
     d="m 77.901489,69.78046 h -4" />
  <path
     id="path2497"
     style="fill:none;stroke:#ff0000;stroke-width:0.1"
     d="m 22.49981,89.77976 h 4" />
  <path
     id="path2499"
     style="fill:none;stroke:#ff0000;stroke-width:0.1"
     d="m 22.49981,95.87976 h 4.000001" />
  <path
     id="path2501"
     style="fill:none;stroke:#ff0000;stroke-width:0.1"
     d="m 22.49981,63.68045 h 4" />
  <path
     id="path2503"
     style="fill:none;stroke:#ff0000;stroke-width:0.1"
     d="m 22.49981,69.78046 h 4.000001" />
  <path
     id="path2505"
     style="fill:none;stroke:#ff0000;stroke-width:0.1"
     d="m 9.4496596,111.22338 v 4" />
  <path
     id="path2507"
     style="fill:none;stroke:#ff0000;stroke-width:0.1"
     d="m 15.54966,111.22338 v 4" />
  <path
     id="path2509"
     style="fill:none;stroke:#ff0000;stroke-width:0.1"
     d="m 9.4496596,166.62506 v -4" />
  <path
     id="path2511"
     style="fill:none;stroke:#ff0000;stroke-width:0.1"
     d="m 15.54966,166.62506 v -4" />
  <path
     id="path2513"
     style="fill:none;stroke:#ff0000;stroke-width:0.1"
     d="M 0,214.00006 V 0.99994" />
  <path
     id="path3086"
     style="fill:none;stroke:#ff0000;stroke-width:0.1"
     d="m 104.00006,214.99999 -103.0001164,0" />
  <path
     id="path3102"
     style="fill:none;stroke:#ff0000;stroke-width:0.1"
     d="M 0.999941,0 H 104.00006" />
  <path
     id="path2515"
     style="fill:none;stroke:#ff0000;stroke-width:0.1"
     d="m 19.735829,202.56737 c 0.72323,1.98755 2.989521,3.80338 4.7625,3.80338 1.59451,0 3.26544,-1.17985 4.07469,-2.87734 0.21933,-0.46009 0.37612,-0.94501 0.47542,-1.44074 -2.5549,1.77652 -6.68462,1.92339 -9.31261,0.5147 v 0" />
  <path
     id="path2517"
     style="fill:none;stroke:#ff0000;stroke-width:0.1"
     d="m 19.445899,200.22488 c 2.798811,-1.90281 7.091,-1.55398 9.66917,-0.30491 -0.12124,-0.90048 -0.42909,-1.77932 -0.9219,-2.56159 -0.88931,-1.41174 -1.21931,-1.59348 -2.76263,-1.52082 -2.79299,0.13128 -4.675309,1.22108 -5.54591,3.21117 -0.211279,0.48297 -0.35135,0.84899 -0.43873,1.17615 v 0" />
  <path
     id="path2519"
     style="fill:none;stroke:#ff0000;stroke-width:0.1"
     d="m 19.69297,180.40229 c 0.72323,-1.98755 2.989519,-3.80338 4.762499,-3.80338 1.59451,0 3.26544,1.17985 4.07469,2.87734 0.21933,0.46009 0.37612,0.94501 0.475421,1.44074 -2.554901,-1.77652 -6.68462,-1.92339 -9.31261,-0.5147 v 0" />
  <path
     id="path2521"
     style="fill:none;stroke:#ff0000;stroke-width:0.1"
     d="m 66.311604,101.0301 h 8.888865 v -3.85055 h 1.801439 l 0.899171,-0.29972 v -8.10028 l -0.899171,-0.29972 h -1.801439 v -8.20777" />
  <path
     id="path2523"
     style="fill:none;stroke:#ff0000;stroke-width:0.1"
     d="M 29.62444,101.0301 H 65.811378" />
  <path
     id="path2525"
     style="fill:none;stroke:#ff0000;stroke-width:0.1"
     d="M 65.811375,113.97019 H 29.62444" />
  <path
     id="path2527"
     style="fill:none;stroke:#ff0000;stroke-width:0.1"
     d="m 75.200466,133.92932 3e-6,-7.40886 h 1.801439 l 0.899171,-0.29972 v -8.10028 l -0.899171,-0.29972 h -1.801439 v -3.85055 h -8.888865" />
  <path
     id="path2529"
     style="fill:none;stroke:#ff0000;stroke-width:0.1"
     d="m 22.499811,152.31992 0.899168,0.29972 h 1.801442 v 3.85055 h 3.924308" />
  <path
     id="path2531"
     style="fill:none;stroke:#ff0000;stroke-width:0.1"
     d="m 2.5000035,139.17447 v 24.74991 0 h 5.6497831 v 1.80144 l 0.2997218,0.89917 h 3.3114256" />
  <path
     id="path3166"
     style="fill:none;stroke:#ff0000;stroke-width:0.1"
     d="M 11.760934,111.22372 H 8.4495084 l -0.2997218,0.89917 v 1.80144 H 2.5000035 v 24.75043" />
  <path
     id="path2533"
     style="fill:none;stroke:#ff0000;stroke-width:0.1"
     d="m 12.261163,166.62499 h 4.288627 l 0.299723,-0.89917 v -1.80144 h 5.650301 v -50.00005 h -5.650301 v -1.80144 l -0.299723,-0.89917 h -4.288627" />
  <path
     id="path2535"
     style="fill:none;stroke:#ff0000;stroke-width:0.1"
     d="m 12.253256,171.37261 c 4.102307,-1.22361 8.74492,-2.12694 11.960802,-1.85077 1.805691,0.15506 3.436957,0.39452 4.927835,0.73089" />
  <path
     id="path2537"
     style="fill:none;stroke:#ff0000;stroke-width:0.1"
     d="m 11.796074,190.77325 0.01084,-5.44153 C 8.6003796,181.90261 5.20149,180.30096 2.54236,175.98605 l 1.1048398,-0.94258 c 1.1268123,-0.96143 4.3421328,-2.35943 8.0903992,-3.51451" />
  <path
     id="path2539"
     style="fill:none;stroke:#ff0000;stroke-width:0.1"
     d="m 22.443044,212.49964 c -7.009227,0.0261 -15.5662119,-1.36803 -18.5273241,-3.32133 L 2.5,208.24403 3.28187,206.75419 c 0.4301199,-0.81959 2.51882,-3.41739 4.6410596,-5.77276 l 3.8586804,-4.28244 0.0124,-4.89014 0.0011,-0.53589" />
  <path
     id="path2541"
     style="fill:none;stroke:#ff0000;stroke-width:0.1"
     d="M 52.067943,207.28741 C 48.663155,205.77992 45.1662,204.55336 40.349831,204.69074 L 38.8724,206.4648 c -1.994961,2.39527 -6.68428,4.8645 -10.597811,5.58054 -1.524851,0.27899 -3.351366,0.42236 -5.316548,0.44977" />
  <path
     id="path2543"
     style="fill:none;stroke:#ff0000;stroke-width:0.1"
     d="m 80.023712,210.92871 c -3.497929,0.58731 -6.934787,1.11473 -12.412964,1.28561 -6.575031,-0.50461 -10.784279,-2.78338 -15.044084,-4.70398" />
  <path
     id="path2545"
     style="fill:none;stroke:#ff0000;stroke-width:0.1"
     d="m 100.92387,184.36768 c -0.64169,1.07603 -1.320244,1.28853 -0.82826,1.58716 1.40183,0.85098 2.31263,3.46932 2.33062,6.10661 0.0152,2.2243 -0.64777,4.50231 -1.75133,5.34075 l -0.949294,0.72141 0.953434,0.72501 c 1.15011,0.87384 1.74398,2.94902 1.74719,5.0545 0.004,1.91788 -0.48125,3.86061 -1.47848,4.94231 -1.133024,1.22904 -0.89716,1.21528 -6.248193,0.36123 -1.292979,-0.2064 -5.0574,0.1764 -11.09131,1.12758 -1.077362,0.16982 -2.092706,0.34281 -3.095066,0.51203" />
  <path
     id="path2547"
     style="fill:none;stroke:#ff0000;stroke-width:0.1"
     d="m 96.719238,144.19725 c -0.5235,3.98653 -0.0936,8.33972 1.726338,13.98875 2.978774,6.14632 3.978964,11.31893 3.980654,17.90433 -0.0114,2.69401 -0.34224,5.08759 -0.99168,7.12825 -0.0823,0.2586 -0.17401,0.48915 -0.27042,0.69535" />
  <path
     id="path2549"
     style="fill:none;stroke:#ff0000;stroke-width:0.1"
     d="m 2.5000033,76.326047 2e-7,24.749903 v 0 h 5.6497831 v 1.80144 l 0.2997218,0.89917 h 3.3114256" />
  <path
     id="path3160"
     style="fill:none;stroke:#ff0000;stroke-width:0.1"
     d="M 11.760934,48.375302 H 8.4495084 l -0.2997218,0.89916 v 1.80145 H 2.5000035 v 24.749905" />
  <path
     id="path2551"
     style="fill:none;stroke:#ff0000;stroke-width:0.1"
     d="m 12.261163,103.77656 h 4.288627 l 0.299723,-0.89917 v -1.80144 h 5.650301 V 51.07591 H 16.849513 V 49.27446 L 16.54979,48.3753 h -4.288627" />
  <path
     id="path2553"
     style="fill:none;stroke:#ff0000;stroke-width:0.1"
     d="m 12.253268,43.6274 c 4.102304,1.22361 8.744911,2.12693 11.960791,1.85077 1.80569,-0.15506 3.436957,-0.39452 4.927834,-0.73089" />
  <path
     id="path2555"
     style="fill:none;stroke:#ff0000;stroke-width:0.1"
     d="m 11.796485,24.43347 0.01043,5.23483 C 8.6003796,33.09741 5.20149,34.69906 2.54236,39.01397 l 1.1048397,0.94258 c 1.126816,0.96144 4.3421539,2.35944 8.0904363,3.51452" />
  <path
     id="path2557"
     style="fill:none;stroke:#ff0000;stroke-width:0.1"
     d="M 22.443048,2.50039 C 15.433822,2.47429 6.8768398,3.86841 3.9157277,5.82172 L 2.5,6.756 3.28187,8.24584 c 0.4301197,0.81959 2.51882,3.41739 4.6410596,5.77276 l 3.8586804,4.28244 0.0124,4.89014 0.0015,0.74258" />
  <path
     id="path2559"
     style="fill:none;stroke:#ff0000;stroke-width:0.1"
     d="M 52.068041,7.71258 C 48.663224,9.22009 45.16625,10.44666 40.349839,10.30929 L 38.872408,8.53523 C 36.877447,6.13996 32.188128,3.67073 28.274595,2.95469 26.749743,2.6757 24.923227,2.53232 22.958043,2.50492" />
  <path
     id="path2561"
     style="fill:none;stroke:#ff0000;stroke-width:0.1"
     d="M 80.023757,4.07132 C 76.525817,3.484 73.088954,2.95659 67.610756,2.7857 61.035786,3.2903 56.826559,5.56904 52.566794,7.48963" />
  <path
     id="path2563"
     style="fill:none;stroke:#ff0000;stroke-width:0.1"
     d="m 100.90951,30.6084 c -0.63739,-1.05527 -1.302214,-1.26682 -0.8139,-1.56322 1.40183,-0.85098 2.31263,-3.46932 2.33062,-6.10661 0.0152,-2.2243 -0.64777,-4.50231 -1.75133,-5.34075 l -0.949294,-0.72141 0.953434,-0.72501 c 1.15011,-0.87384 1.74398,-2.94902 1.74719,-5.0545 0.004,-1.91788 -0.48125,-3.86061 -1.47848,-4.94231 C 99.814726,4.92555 100.05059,4.93931 94.699557,5.79336 93.406578,5.99976 89.642157,5.61696 83.608247,4.66578 82.530875,4.49595 81.515523,4.32297 80.513152,4.15375" />
  <path
     id="path2565"
     style="fill:none;stroke:#ff0000;stroke-width:0.1"
     d="m 96.719238,70.80276 c -0.5235,-3.98652 -0.0936,-8.33972 1.726338,-13.98875 2.978774,-6.14631 3.978964,-11.31893 3.980654,-17.90433 -0.0114,-2.694 -0.34224,-5.08758 -0.99168,-7.12824 -0.0862,-0.2708 -0.18267,-0.51083 -0.28408,-0.72435" />
  <path
     id="path2567"
     style="fill:none;stroke:#ff0000;stroke-width:0.1"
     d="m 93.412364,105.17215 c 5.541132,-2.46067 9.019346,-6.36198 9.014566,-10.16409 l 0.006,-8.8868 c -2.752624,-5.5938 -4.903464,-9.96029 -5.64326,-14.82155" />
  <path
     id="path2569"
     style="fill:none;stroke:#ff0000;stroke-width:0.1"
     d="m 83.757874,71.30199 c 0.428641,5.67951 2.080046,10.76811 4.513845,15.05389 1.758789,3.09714 0.780809,6.18666 -2.422189,7.30253 -8.606671,2.99844 -11.224561,6.23367 -9.736762,10.16091 1.9958,5.26818 10.519421,3.46834 12.667321,2.93228 1.47025,-0.36694 2.853624,-0.82764 4.133721,-1.3643" />
  <path
     id="path2571"
     style="fill:none;stroke:#ff0000;stroke-width:0.1"
     d="M 65.811375,58.5301 H 29.62444" />
  <path
     id="path2573"
     style="fill:none;stroke:#ff0000;stroke-width:0.1"
     d="m 75.200466,79.77235 3e-6,-8.69198 h 1.801439 l 0.899171,-0.29972 V 62.68037 L 77.001908,62.38065 H 75.200469 V 58.5301 h -8.888865" />
  <path
     id="path2575"
     style="fill:none;stroke:#ff0000;stroke-width:0.1"
     d="m 66.286389,57.59525 c 1.290942,0.22185 2.664347,0.38068 4.130601,0.47639 4.07978,0.2663 7.451228,-0.51169 12.18841,-1.37183 1.376238,-0.24989 2.642158,-0.66404 2.871139,-0.66404 -1.530694,5.22575 -2.039308,10.18469 -1.753055,14.76749" />
  <path
     id="path2577"
     style="fill:none;stroke:#ff0000;stroke-width:0.1"
     d="m 29.642784,44.62932 c 3.376202,-0.82922 6.021794,-2.1846 8.358036,-4.22112 l 1.62574,-1.41749 c 6.98776,1.96231 7.64622,4.45033 10.470568,8.37742 3.879631,5.3944 8.471257,8.77962 15.675557,10.1347" />
  <path
     id="path2579"
     style="fill:none;stroke:#ff0000;stroke-width:0.1"
     d="m 93.412364,109.82786 c 5.541132,2.46067 9.019346,6.36199 9.014566,10.16409 l 0.006,8.8868 c -2.752704,5.59399 -4.903604,9.96059 -5.643326,14.82206" />
  <path
     id="path2581"
     style="fill:none;stroke:#ff0000;stroke-width:0.1"
     d="m 83.757874,143.69802 c 0.428641,-5.67951 2.080046,-10.76811 4.513845,-15.05389 1.758789,-3.09714 0.780809,-6.18666 -2.422189,-7.30253 -8.606671,-2.99844 -11.224561,-6.23367 -9.736762,-10.16091 1.9958,-5.26817 10.519421,-3.46834 12.667321,-2.93228 1.47025,0.36694 2.853624,0.82764 4.133721,1.3643" />
  <path
     id="path2583"
     style="fill:none;stroke:#ff0000;stroke-width:0.1"
     d="m 66.311604,156.47019 h 8.888865 v -3.85055 h 1.801439 l 0.899171,-0.29972 v -8.10028 l -0.899171,-0.29972 h -1.801439 v -9.49089" />
  <path
     id="path2585"
     style="fill:none;stroke:#ff0000;stroke-width:0.1"
     d="M 29.62444,156.47019 H 65.811378" />
  <path
     id="path2587"
     style="fill:none;stroke:#ff0000;stroke-width:0.1"
     d="m 66.286302,157.40477 c 1.290968,-0.22185 2.664399,-0.38069 4.130688,-0.4764 4.07978,-0.2663 7.451228,0.51169 12.18841,1.37183 1.376238,0.24989 2.642158,0.66404 2.871139,0.66404 -1.530752,-5.22594 -2.039345,-10.18506 -1.753023,-14.768" />
  <path
     id="path2589"
     style="fill:none;stroke:#ff0000;stroke-width:0.1"
     d="m 29.642784,170.3707 c 3.376202,0.82921 6.021794,2.18459 8.358036,4.22111 l 1.62574,1.41749 c 6.98776,-1.96231 7.64622,-4.45033 10.470568,-8.37742 3.879638,-5.39441 8.47127,-8.77963 15.675591,-10.13471" />
  <path
     id="path2591"
     style="fill:none;stroke:#ff0000;stroke-width:0.1"
     d="m 19.40304,182.74478 c 2.798809,1.90281 7.090999,1.55398 9.66917,0.30491 -0.121241,0.90048 -0.42909,1.77932 -0.9219,2.56159 -0.889311,1.41174 -1.219311,1.59348 -2.762631,1.52082 -2.792989,-0.13128 -4.67531,-1.22108 -5.545909,-3.21117 -0.211281,-0.48297 -0.35135,-0.84899 -0.43873,-1.17615 v 0" />
  <path
     id="path2593"
     style="fill:none;stroke:#ff0000;stroke-width:0.1"
     d="m 98.622656,191.31907 v 8.1 h -2.700862 v -8.1 h 2.700862 v 0" />
  <path
     id="path2595"
     style="fill:none;stroke:#ff0000;stroke-width:0.1"
     d="m 98.622796,171.31954 v 8.1 h -2.700862 v -8.1 h 2.700862 v 0" />
  <path
     id="path2597"
     style="fill:none;stroke:#ff0000;stroke-width:0.1"
     d="m 86.372378,205.36929 h 8.1 v 2.70086 h -8.1 v -2.70086 0" />
  <path
     id="path2599"
     style="fill:none;stroke:#ff0000;stroke-width:0.1"
     d="m 60.273199,205.36929 h 8.099999 v 2.70086 h -8.099999 v -2.70086 0" />
  <path
     id="path2601"
     style="fill:none;stroke:#ff0000;stroke-width:0.1"
     d="m 86.372378,162.66843 h 8.1 v 2.70086 h -8.1 v -2.70086 0" />
  <path
     id="path2603"
     style="fill:none;stroke:#ff0000;stroke-width:0.1"
     d="m 60.273199,162.66843 h 8.099999 v 2.70086 h -8.099999 v -2.70086 0" />
  <path
     id="path2607"
     style="color:#000000;font-style:normal;font-variant:normal;font-weight:normal;font-stretch:normal;font-size:medium;line-height:normal;font-family:sans-serif;font-variant-ligatures:normal;font-variant-position:normal;font-variant-caps:normal;font-variant-numeric:normal;font-variant-alternates:normal;font-variant-east-asian:normal;font-feature-settings:normal;font-variation-settings:normal;text-indent:0;text-align:start;text-decoration:none;text-decoration-line:none;text-decoration-style:solid;text-decoration-color:#000000;letter-spacing:normal;word-spacing:normal;text-transform:none;writing-mode:lr-tb;direction:ltr;text-orientation:mixed;dominant-baseline:auto;baseline-shift:baseline;text-anchor:start;white-space:normal;shape-padding:0;shape-margin:0;inline-size:0;clip-rule:nonzero;display:inline;overflow:visible;visibility:visible;isolation:auto;mix-blend-mode:normal;color-interpolation:sRGB;color-interpolation-filters:linearRGB;solid-color:#000000;solid-opacity:1;vector-effect:none;fill:#000000;fill-opacity:1;fill-rule:nonzero;stroke:none;stroke-width:1.88976;stroke-linecap:butt;stroke-linejoin:round;stroke-miterlimit:4;stroke-dasharray:none;stroke-dashoffset:0;stroke-opacity:1;color-rendering:auto;image-rendering:auto;shape-rendering:auto;text-rendering:auto;enable-background:accumulate;stop-color:#000000"
     d="m 285.13504,35.65446 c 0.006,1.7e-4 0.01,3.6e-4 0.0115,6.7e-4 a 0.27641859,0.27641859 0 0 0 0.004,0 c 1.0625,-2e-5 1.93227,-0.86027 1.93218,-1.91733 0,-0.10334 -0.009,-0.20468 -0.0244,-0.30362 l 2.83569,-1.86804 c 0.6301,0.28244 1.07733,0.977 1.07733,1.80373 0,0.87026 -0.49523,1.59496 -1.17804,1.84567 v 0.58438 c 0.95353,-0.26831 1.66677,-1.25296 1.66677,-2.43005 0,-0.9082 -0.42549,-1.70036 -1.05743,-2.13885 l 0.0901,-0.0594 -0.0901,-0.0594 c 0.63194,-0.43848 1.05743,-1.23065 1.05743,-2.13884 0,-1.1771 -0.71324,-2.16174 -1.66677,-2.43004 v 0.58437 c 0.68281,0.25072 1.17804,0.97542 1.17804,1.84567 0,0.82672 -0.44723,1.5213 -1.07733,1.80373 l -2.83569,-1.86804 c 0.0159,-0.0989 0.0244,-0.20029 0.0244,-0.30361 -2.4e-4,-1.05678 -0.86989,-1.91747 -1.93218,-1.9175 a 0.27641859,0.27641859 0 0 0 -0.004,0 c -0.002,4e-5 -0.006,6.7e-4 -0.0115,6.7e-4 l 0.0159,0.55205 c 0.7664,10e-6 1.37954,0.60917 1.37949,1.3648 -1e-5,0.75557 -0.61314,1.36461 -1.37949,1.36463 -2.6e-4,-10e-6 -0.002,0 -0.002,0 l -0.0124,0.55286 c 0.005,8e-5 0.008,3e-5 0.006,0 a 0.27641859,0.27641859 0 0 0 0.009,0 c 0.63392,-10e-6 1.1991,-0.30649 1.55202,-0.77813 v 2.85363 c -0.35292,-0.47164 -0.9181,-0.77811 -1.55202,-0.77812 a 0.27641859,0.27641859 0 0 0 -0.009,0 c 9.6e-4,-4e-5 -6.4e-4,-8e-5 -0.006,0 l 0.0118,0.55271 c 7e-5,0 0.002,0 0.002,0 0.76635,10e-6 1.37947,0.6092 1.37948,1.36478 7e-5,0.75563 -0.61308,1.36462 -1.37948,1.36463 z m -22.5722,-4.4827 c 0,9.10675 7.39774,16.5045 16.50449,16.5045 0.0226,0 0.045,-6.3e-4 0.0678,-9.5e-4 3.07063,-0.0284 6.32682,0.83796 10.1717,-0.71856 3.63058,-1.46975 6.68286,-4.46216 8.24115,-9.44482 1.27213,-4.06762 1.70972,-9.63692 1.02592,-15.13121 -0.6838,-5.49431 -2.48544,-10.91971 -5.85597,-14.60987 -0.88888,-0.97314 -2.31471,-1.90599 -3.72827,-2.44311 -0.70675,-0.26855 -1.40749,-0.44061 -2.08333,-0.40841 -0.67584,0.0322 -1.39916,0.34793 -1.7497,1.01058 -0.59376,1.12244 -0.37013,2.30309 0.0605,3.19692 0.43053,0.89383 1.06207,1.59718 1.41342,2.00695 2.73395,3.18857 5.30265,5.76477 6.4353,9.7287 0.24107,0.84366 0.43683,1.71832 0.59385,2.59998 -2.77112,-5.2285 -8.26922,-8.79533 -14.59222,-8.79533 -9.10676,0 -16.5045,7.39775 -16.5045,16.5045 z m 1.42142,0 c 0,-8.33855 6.74452,-15.08306 15.08307,-15.08306 5.96774,0 11.11838,3.45484 13.56517,8.47587 -1.58123,-1.43029 -3.67603,-2.30273 -5.97057,-2.30273 -1.20982,0 -2.3639,0.24292 -3.41664,0.68183 -0.68109,-0.40748 -1.4756,-0.82653 -2.25736,-1.14214 -0.94293,-0.38067 -1.84618,-0.65374 -2.63571,-0.43486 l -0.21402,0.0598 -0.0913,0.20306 c -0.17775,0.39604 -0.23815,0.85504 -0.21841,1.34423 0.0197,0.48919 0.11955,1.008 0.26084,1.52444 0.20846,0.76186 0.51708,1.50684 0.93875,2.08464 -0.80926,1.34126 -1.27549,2.91175 -1.27549,4.58897 0,1.67723 0.46623,3.24748 1.27549,4.58865 -0.4217,0.57763 -0.73028,1.32226 -0.93875,2.08415 -0.14129,0.51644 -0.24109,1.03525 -0.26084,1.52444 -0.0198,0.48919 0.0407,0.94836 0.21841,1.34439 l 0.0913,0.20355 0.21402,0.0593 c 0.78953,0.21888 1.69278,-0.0543 2.63571,-0.43502 0.7817,-0.31557 1.57614,-0.73452 2.2572,-1.14198 1.05277,0.43889 2.20691,0.68183 3.4168,0.68183 2.29467,0 4.38962,-0.87244 5.97088,-2.30273 -2.44668,5.02132 -7.59754,8.47637 -13.56548,8.47637 -8.33855,0 -15.08307,-6.74435 -15.08307,-15.0829 z m 14.83578,8.26661 c -0.002,-0.39273 0.0508,-0.86012 0.18314,-1.34389 0.14599,-0.53362 0.36867,-1.05941 0.61245,-1.47759 0.71102,0.91793 1.5969,1.69407 2.60748,2.27726 -0.51218,0.28302 -1.06278,0.55564 -1.59005,0.7685 -0.72121,0.29117 -1.34686,0.40229 -1.75459,0.38932 -0.036,-0.16922 -0.0571,-0.37795 -0.0585,-0.6136 z m 0,-16.53404 c 9.6e-4,-0.23564 0.0225,-0.44438 0.0585,-0.61358 0.40772,-0.013 1.03338,0.0982 1.75459,0.3893 0.52721,0.21284 1.07776,0.48566 1.58988,0.76883 -1.01056,0.58328 -1.89631,1.35943 -2.60731,2.27743 -0.24378,-0.41836 -0.46646,-0.9443 -0.61245,-1.47791 -0.13235,-0.48377 -0.1854,-0.95133 -0.18315,-1.34407 z m 0.35405,8.26743 c 0,-4.14403 3.34378,-7.48848 7.48784,-7.48848 4.07927,0 7.38376,3.24065 7.48603,7.29472 9.7e-4,0.0601 0.002,0.12045 0.002,0.18086 a 0.71071957,0.71071957 0 0 0 0,0.0215 c -5e-5,0.062 -0.002,0.1236 -0.002,0.18543 -0.10251,4.05382 -3.40692,7.29374 -7.48603,7.29374 -4.14406,0 -7.48784,-3.3438 -7.48784,-7.48782 z m 6.23174,15.23994 c 5.89928,-2.46009 10.07047,-8.24745 10.16306,-15.01043 9.5e-4,-0.068 0.002,-0.13584 0.002,-0.20404 0.1442,-2.99329 -0.0924,-7.06143 -1.13921,-10.72524 -1.24349,-4.35182 -4.03215,-7.12476 -6.72276,-10.26279 -0.36442,-0.42503 -0.89424,-1.04008 -1.21168,-1.6991 -0.31742,-0.65901 -0.42821,-1.26585 -0.0846,-1.91554 0.091,-0.17203 0.1951,-0.23804 0.56071,-0.25546 0.36562,-0.0174 0.92031,0.0932 1.51089,0.31765 1.18116,0.44882 2.51833,1.34462 3.18354,2.0729 3.06881,3.35981 4.8353,8.52507 5.49507,13.82635 0.65978,5.30126 0.21594,10.73183 -0.97237,14.53149 -1.4512,4.64023 -4.14294,7.22574 -7.41813,8.55162 -1.16852,0.47305 -2.27869,0.68998 -3.36717,0.77259 z" />
  <path
     id="path2609"
     style="color:#000000;font-style:normal;font-variant:normal;font-weight:normal;font-stretch:normal;font-size:medium;line-height:normal;font-family:sans-serif;font-variant-ligatures:normal;font-variant-position:normal;font-variant-caps:normal;font-variant-numeric:normal;font-variant-alternates:normal;font-variant-east-asian:normal;font-feature-settings:normal;font-variation-settings:normal;text-indent:0;text-align:start;text-decoration:none;text-decoration-line:none;text-decoration-style:solid;text-decoration-color:#000000;letter-spacing:normal;word-spacing:normal;text-transform:none;writing-mode:lr-tb;direction:ltr;text-orientation:mixed;dominant-baseline:auto;baseline-shift:baseline;text-anchor:start;white-space:normal;shape-padding:0;shape-margin:0;inline-size:0;clip-rule:nonzero;display:inline;overflow:visible;visibility:visible;isolation:auto;mix-blend-mode:normal;color-interpolation:sRGB;color-interpolation-filters:linearRGB;solid-color:#000000;solid-opacity:1;vector-effect:none;fill:#000000;fill-opacity:1;fill-rule:nonzero;stroke:none;stroke-width:1.88976;stroke-linecap:butt;stroke-linejoin:round;stroke-miterlimit:4;stroke-dasharray:none;stroke-dashoffset:0;stroke-opacity:1;color-rendering:auto;image-rendering:auto;shape-rendering:auto;text-rendering:auto;enable-background:accumulate;stop-color:#000000"
     d="m 285.13504,190.96946 c 0.006,1.7e-4 0.01,3.6e-4 0.0115,6.8e-4 a 0.27641859,0.27641859 0 0 0 0.004,0 c 1.0625,-3e-5 1.93227,-0.86028 1.93218,-1.91734 0,-0.10334 -0.009,-0.20468 -0.0244,-0.30362 l 2.83569,-1.86804 c 0.6301,0.28244 1.07733,0.977 1.07733,1.80373 0,0.87026 -0.49523,1.59496 -1.17804,1.84567 v 0.58438 c 0.95353,-0.26831 1.66677,-1.25296 1.66677,-2.43005 0,-0.9082 -0.42549,-1.70036 -1.05743,-2.13885 l 0.0901,-0.0594 -0.0901,-0.0594 c 0.63194,-0.43848 1.05743,-1.23065 1.05743,-2.13884 0,-1.1771 -0.71324,-2.16174 -1.66677,-2.43005 v 0.58438 c 0.68281,0.25071 1.17804,0.97542 1.17804,1.84567 0,0.82672 -0.44723,1.52129 -1.07733,1.80373 l -2.83569,-1.86804 c 0.0159,-0.0989 0.0244,-0.20029 0.0244,-0.30361 -2.4e-4,-1.05678 -0.86989,-1.91748 -1.93218,-1.9175 a 0.27641859,0.27641859 0 0 0 -0.004,0 c -0.002,3e-5 -0.006,6.6e-4 -0.0115,6.6e-4 l 0.0159,0.55206 c 0.7664,1e-5 1.37954,0.60917 1.37949,1.3648 -1e-5,0.75556 -0.61314,1.3646 -1.37949,1.36463 -2.6e-4,-1e-5 -0.002,0 -0.002,0 l -0.0124,0.55286 c 0.005,8e-5 0.008,3e-5 0.006,0 a 0.27641859,0.27641859 0 0 0 0.009,0 c 0.63392,-1e-5 1.1991,-0.30649 1.55202,-0.77814 v 2.85364 c -0.35292,-0.47164 -0.9181,-0.77811 -1.55202,-0.77812 a 0.27641859,0.27641859 0 0 0 -0.009,0 c 9.6e-4,-4e-5 -6.4e-4,-8e-5 -0.006,0 l 0.0118,0.5527 c 7e-5,0 0.002,0 0.002,0 0.76635,1e-5 1.37947,0.60921 1.37948,1.36479 7e-5,0.75563 -0.61308,1.36462 -1.37948,1.36463 z m -22.5722,-4.4827 c 0,9.10675 7.39774,16.50449 16.50449,16.50449 0.0226,0 0.045,-6.3e-4 0.0678,-9.4e-4 3.07063,-0.0284 6.32682,0.83795 10.1717,-0.71856 3.63058,-1.46975 6.68286,-4.46216 8.24115,-9.44482 1.27213,-4.06761 1.70972,-9.63692 1.02592,-15.13122 -0.6838,-5.4943 -2.48544,-10.91971 -5.85597,-14.60986 -0.88888,-0.97314 -2.31471,-1.906 -3.72827,-2.44311 -0.70675,-0.26856 -1.40749,-0.44061 -2.08333,-0.40841 -0.67584,0.0322 -1.39916,0.34793 -1.7497,1.01058 -0.59376,1.12244 -0.37013,2.30309 0.0605,3.19692 0.43053,0.89383 1.06207,1.59718 1.41342,2.00695 2.73395,3.18857 5.30265,5.76476 6.4353,9.72869 0.24107,0.84367 0.43683,1.71833 0.59385,2.59999 -2.77112,-5.2285 -8.26922,-8.79533 -14.59222,-8.79533 -9.10676,0 -16.5045,7.39774 -16.5045,16.5045 z m 1.42142,0 c 0,-8.33855 6.74452,-15.08306 15.08307,-15.08306 5.96774,0 11.11838,3.45484 13.56517,8.47587 -1.58123,-1.43029 -3.67603,-2.30273 -5.97057,-2.30273 -1.20982,0 -2.3639,0.24292 -3.41664,0.68183 -0.68109,-0.40748 -1.4756,-0.82653 -2.25736,-1.14214 -0.94293,-0.38068 -1.84618,-0.65374 -2.63571,-0.43486 l -0.21402,0.0598 -0.0913,0.20306 c -0.17775,0.39604 -0.23815,0.85504 -0.21841,1.34423 0.0197,0.48919 0.11955,1.008 0.26084,1.52444 0.20846,0.76186 0.51708,1.50685 0.93875,2.08464 -0.80926,1.34126 -1.27549,2.91176 -1.27549,4.58897 0,1.67723 0.46623,3.24748 1.27549,4.58866 -0.4217,0.57763 -0.73028,1.32225 -0.93875,2.08415 -0.14129,0.51644 -0.24109,1.03524 -0.26084,1.52444 -0.0198,0.48918 0.0407,0.94836 0.21841,1.34438 l 0.0913,0.20356 0.21402,0.0593 c 0.78953,0.21888 1.69278,-0.0543 2.63571,-0.43502 0.7817,-0.31558 1.57614,-0.73453 2.2572,-1.14198 1.05277,0.43888 2.20691,0.68182 3.4168,0.68182 2.29467,0 4.38962,-0.87243 5.97088,-2.30273 -2.44668,5.02132 -7.59754,8.47637 -13.56548,8.47637 -8.33855,0 -15.08307,-6.74434 -15.08307,-15.0829 z m 14.83578,8.26661 c -0.002,-0.39273 0.0508,-0.86012 0.18314,-1.34389 0.14599,-0.53362 0.36867,-1.05941 0.61245,-1.47759 0.71102,0.91793 1.5969,1.69407 2.60748,2.27726 -0.51218,0.28303 -1.06278,0.55564 -1.59005,0.7685 -0.72121,0.29117 -1.34686,0.40229 -1.75459,0.38932 -0.036,-0.16922 -0.0571,-0.37795 -0.0585,-0.6136 z m 0,-16.53404 c 9.6e-4,-0.23564 0.0225,-0.44438 0.0585,-0.61359 0.40772,-0.013 1.03338,0.0982 1.75459,0.38931 0.52721,0.21284 1.07776,0.48566 1.58988,0.76883 -1.01056,0.58328 -1.89631,1.35943 -2.60731,2.27743 -0.24378,-0.41836 -0.46646,-0.9443 -0.61245,-1.47791 -0.13235,-0.48377 -0.1854,-0.95133 -0.18315,-1.34407 z m 0.35405,8.26743 c 0,-4.14403 3.34378,-7.48848 7.48784,-7.48848 4.07927,0 7.38376,3.24065 7.48603,7.29472 9.7e-4,0.0601 0.002,0.12045 0.002,0.18086 a 0.71071957,0.71071957 0 0 0 0,0.0215 c -5e-5,0.062 -0.002,0.12361 -0.002,0.18543 -0.10251,4.05383 -3.40692,7.29374 -7.48603,7.29374 -4.14406,0 -7.48784,-3.34379 -7.48784,-7.48782 z m 6.23174,15.23994 c 5.89928,-2.46009 10.07047,-8.24745 10.16306,-15.01043 9.5e-4,-0.068 0.002,-0.13584 0.002,-0.20404 0.1442,-2.99328 -0.0924,-7.06143 -1.13921,-10.72524 -1.24349,-4.35182 -4.03215,-7.12477 -6.72276,-10.26279 -0.36442,-0.42504 -0.89424,-1.04008 -1.21168,-1.6991 -0.31742,-0.65902 -0.42821,-1.26585 -0.0846,-1.91554 0.091,-0.17203 0.1951,-0.23804 0.56071,-0.25546 0.36562,-0.0174 0.92031,0.0932 1.51089,0.31765 1.18116,0.44882 2.51833,1.34462 3.18354,2.0729 3.06881,3.3598 4.8353,8.52507 5.49507,13.82635 0.65978,5.30126 0.21594,10.73183 -0.97237,14.5315 -1.4512,4.64022 -4.14294,7.22572 -7.41813,8.55161 -1.16852,0.47305 -2.27869,0.68998 -3.36717,0.77259 z" />
  <path
     id="path2611"
     style="fill:none;stroke:#ff0000;stroke-width:0.1"
     d="m 219.44966,48.37494 v 4" />
  <path
     id="path2613"
     style="fill:none;stroke:#ff0000;stroke-width:0.1"
     d="m 225.54966,48.37494 v 4" />
  <path
     id="path2615"
     style="fill:none;stroke:#ff0000;stroke-width:0.1"
     d="m 219.44966,103.77662 v -4" />
  <path
     id="path2617"
     style="fill:none;stroke:#ff0000;stroke-width:0.1"
     d="m 225.54966,103.77662 v -4" />
  <path
     id="path2619"
     style="fill:none;stroke:#ff0000;stroke-width:0.1"
     d="m 229.73583,12.43264 c 0.72323,-1.98755 2.98952,-3.80339 4.7625,-3.80339 1.59451,0 3.26544,1.17986 4.07469,2.87735 0.21933,0.46009 0.37612,0.94501 0.47542,1.44073 -2.5549,-1.77651 -6.68462,-1.92338 -9.31261,-0.51469 v 0" />
  <path
     id="path2621"
     style="fill:none;stroke:#ff0000;stroke-width:0.1"
     d="m 229.4459,14.77513 c 2.79881,1.90281 7.091,1.55398 9.66917,0.3049 -0.12124,0.90048 -0.42909,1.77932 -0.9219,2.56159 -0.88931,1.41174 -1.21931,1.59348 -2.76263,1.52082 -2.79299,-0.13127 -4.67531,-1.22107 -5.54591,-3.21116 -0.21128,-0.48297 -0.35135,-0.84899 -0.43873,-1.17615 v 0" />
  <path
     id="path2623"
     style="fill:none;stroke:#ff0000;stroke-width:0.1"
     d="m 229.69297,34.59771 c 0.72323,1.98755 2.98952,3.80338 4.7625,3.80338 1.59451,0 3.26544,-1.17984 4.07469,-2.87733 0.21933,-0.4601 0.37612,-0.94502 0.47542,-1.44074 -2.5549,1.77652 -6.68462,1.92338 -9.31261,0.51469 v 0" />
  <path
     id="path2625"
     style="fill:none;stroke:#ff0000;stroke-width:0.1"
     d="m 229.40304,32.25523 c 2.79881,-1.90282 7.091,-1.55398 9.66917,-0.30492 -0.12124,-0.90048 -0.42909,-1.77932 -0.9219,-2.56159 -0.88931,-1.41173 -1.21931,-1.59347 -2.76263,-1.52081 -2.79299,0.13128 -4.67531,1.22108 -5.54591,3.21117 -0.21128,0.48296 -0.35135,0.84899 -0.43873,1.17615 v 0" />
  <path
     id="path2627"
     style="fill:none;stroke:#ff0000;stroke-width:0.1"
     d="m 308.62265,23.68093 v -8.09999 h -2.70086 v 8.09999 h 2.70086 v 0" />
  <path
     id="path2629"
     style="fill:none;stroke:#ff0000;stroke-width:0.1"
     d="m 308.62279,43.68047 v -8.10001 h -2.70086 v 8.10001 h 2.70086 v 0" />
  <path
     id="path2631"
     style="fill:none;stroke:#ff0000;stroke-width:0.1"
     d="m 296.37238,9.63072 h 8.1 V 6.92985 h -8.1 v 2.70087 0" />
  <path
     id="path2633"
     style="fill:none;stroke:#ff0000;stroke-width:0.1"
     d="m 270.2732,9.63072 h 8.1 V 6.92985 h -8.1 v 2.70087 0" />
  <path
     id="path2635"
     style="fill:none;stroke:#ff0000;stroke-width:0.1"
     d="m 296.37238,52.33157 h 8.1 v -2.70086 h -8.1 v 2.70086 0" />
  <path
     id="path2637"
     style="fill:none;stroke:#ff0000;stroke-width:0.1"
     d="m 270.2732,52.33157 h 8.1 v -2.70086 h -8.1 v 2.70086 0" />
  <path
     id="path2639"
     style="fill:none;stroke:#ff0000;stroke-width:0.1"
     d="m 287.90149,145.21986 h -4" />
  <path
     id="path2641"
     style="fill:none;stroke:#ff0000;stroke-width:0.1"
     d="m 287.90149,151.31986 h -4" />
  <path
     id="path2643"
     style="fill:none;stroke:#ff0000;stroke-width:0.1"
     d="m 232.49981,126.22074 0.89917,0.29972 h 1.80144 v 17.39946 h -1.80144 l -0.89917,0.29972" />
  <path
     id="path2645"
     style="fill:none;stroke:#ff0000;stroke-width:0.1"
     d="m 287.90149,119.12055 h -4" />
  <path
     id="path2647"
     style="fill:none;stroke:#ff0000;stroke-width:0.1"
     d="m 287.90149,125.22055 h -4" />
  <path
     id="path2649"
     style="fill:none;stroke:#ff0000;stroke-width:0.1"
     d="m 232.49981,145.21986 h 4" />
  <path
     id="path2651"
     style="fill:none;stroke:#ff0000;stroke-width:0.1"
     d="m 232.49981,151.31986 h 4" />
  <path
     id="path2653"
     style="fill:none;stroke:#ff0000;stroke-width:0.1"
     d="m 232.49981,119.12055 h 4" />
  <path
     id="path2655"
     style="fill:none;stroke:#ff0000;stroke-width:0.1"
     d="m 232.49981,125.22055 h 4" />
  <path
     id="path2657"
     style="fill:none;stroke:#ff0000;stroke-width:0.1"
     d="m 287.90149,89.77976 h -4" />
  <path
     id="path2659"
     style="fill:none;stroke:#ff0000;stroke-width:0.1"
     d="m 287.90149,95.87976 h -4" />
  <path
     id="path2661"
     style="fill:none;stroke:#ff0000;stroke-width:0.1"
     d="m 239.12473,58.5301 -3.92431,-10e-6 v 3.85055 h -1.80144 l -0.89917,0.29972" />
  <path
     id="path2663"
     style="fill:none;stroke:#ff0000;stroke-width:0.1"
     d="m 239.12473,113.97019 h -3.92431 v 3.85055 h -1.80144 l -0.89917,0.29972" />
  <path
     id="path2665"
     style="fill:none;stroke:#ff0000;stroke-width:0.1"
     d="m 232.49981,96.87983 0.89917,0.29972 h 1.80144 v 3.85055 l 3.92431,-1e-5" />
  <path
     id="path2667"
     style="fill:none;stroke:#ff0000;stroke-width:0.1"
     d="m 232.49981,70.78064 0.89917,0.29972 h 1.80144 v 17.39946 h -1.80144 l -0.89917,0.29972" />
  <path
     id="path2669"
     style="fill:none;stroke:#ff0000;stroke-width:0.1"
     d="m 287.90149,63.68045 h -4" />
  <path
     id="path2671"
     style="fill:none;stroke:#ff0000;stroke-width:0.1"
     d="m 287.90149,69.78046 h -4" />
  <path
     id="path2673"
     style="fill:none;stroke:#ff0000;stroke-width:0.1"
     d="m 232.49981,89.77976 h 4" />
  <path
     id="path2675"
     style="fill:none;stroke:#ff0000;stroke-width:0.1"
     d="m 232.49981,95.87976 h 4" />
  <path
     id="path2677"
     style="fill:none;stroke:#ff0000;stroke-width:0.1"
     d="m 232.49981,63.68045 h 4" />
  <path
     id="path2679"
     style="fill:none;stroke:#ff0000;stroke-width:0.1"
     d="m 232.49981,69.78046 h 4" />
  <path
     id="path2681"
     style="fill:none;stroke:#ff0000;stroke-width:0.1"
     d="m 219.44966,111.22338 v 4" />
  <path
     id="path2683"
     style="fill:none;stroke:#ff0000;stroke-width:0.1"
     d="m 225.54966,111.22338 v 4" />
  <path
     id="path2685"
     style="fill:none;stroke:#ff0000;stroke-width:0.1"
     d="m 219.44966,166.62506 v -4" />
  <path
     id="path2687"
     style="fill:none;stroke:#ff0000;stroke-width:0.1"
     d="m 225.54966,166.62506 v -4" />
  <path
     id="path3142"
     style="fill:none;stroke:#ff0000;stroke-width:0.1"
     d="m 314.00007,214.99998 -103.00013,1e-5" />
  <path
     id="path3130"
     style="fill:none;stroke:#ff0000;stroke-width:0.1"
     d="M 315.00001,0.99994 V 214.00006" />
  <path
     id="path3124"
     style="fill:none;stroke:#ff0000;stroke-width:0.1"
     d="M 210.99994,0 H 314.00007" />
  <path
     id="path2691"
     style="fill:none;stroke:#ff0000;stroke-width:0.1"
     d="m 229.73583,202.56737 c 0.72323,1.98755 2.98952,3.80338 4.7625,3.80338 1.59451,0 3.26544,-1.17985 4.07469,-2.87734 0.21933,-0.46009 0.37612,-0.94501 0.47542,-1.44074 -2.5549,1.77652 -6.68462,1.92339 -9.31261,0.5147 v 0" />
  <path
     id="path2693"
     style="fill:none;stroke:#ff0000;stroke-width:0.1"
     d="m 229.4459,200.22488 c 2.79881,-1.90281 7.091,-1.55398 9.66917,-0.30491 -0.12124,-0.90048 -0.42909,-1.77932 -0.9219,-2.56159 -0.88931,-1.41174 -1.21931,-1.59348 -2.76263,-1.52082 -2.79299,0.13128 -4.67531,1.22108 -5.54591,3.21117 -0.21128,0.48297 -0.35135,0.84899 -0.43873,1.17615 v 0" />
  <path
     id="path2695"
     style="fill:none;stroke:#ff0000;stroke-width:0.1"
     d="m 229.69297,180.40229 c 0.72323,-1.98755 2.98952,-3.80338 4.7625,-3.80338 1.59451,0 3.26544,1.17985 4.07469,2.87734 0.21933,0.46009 0.37612,0.94501 0.47542,1.44074 -2.5549,-1.77652 -6.68462,-1.92339 -9.31261,-0.5147 v 0" />
  <path
     id="path2697"
     style="fill:none;stroke:#ff0000;stroke-width:0.1"
     d="m 276.3116,101.0301 h 8.88887 v -3.85055 h 1.80144 l 0.89917,-0.29972 v -8.10028 l -0.89917,-0.29972 h -1.80144 v -8.20777" />
  <path
     id="path2699"
     style="fill:none;stroke:#ff0000;stroke-width:0.1"
     d="m 239.62444,101.0301 h 36.18694" />
  <path
     id="path2701"
     style="fill:none;stroke:#ff0000;stroke-width:0.1"
     d="M 275.81137,113.97019 H 239.62444" />
  <path
     id="path2703"
     style="fill:none;stroke:#ff0000;stroke-width:0.1"
     d="m 285.20047,133.92932 v -7.40886 h 1.80144 l 0.89917,-0.29972 v -8.10028 l -0.89917,-0.29972 h -1.80144 v -3.85055 h -8.88887" />
  <path
     id="path2705"
     style="fill:none;stroke:#ff0000;stroke-width:0.1"
     d="m 232.49981,152.31992 0.89917,0.29972 h 1.80144 v 3.85055 h 3.92431" />
  <path
     id="path2707"
     style="fill:none;stroke:#ff0000;stroke-width:0.1"
     d="m 212.49999,139.17447 v 24.74991 0 h 5.64979 v 1.80144 l 0.29972,0.89917 h 3.31142" />
  <path
     id="path3190"
     style="fill:none;stroke:#ff0000;stroke-width:0.1"
     d="m 221.76092,111.22372 h -3.31142 l -0.29972,0.89917 v 1.80144 h -5.64979 v 24.75043" />
  <path
     id="path2709"
     style="fill:none;stroke:#ff0000;stroke-width:0.1"
     d="m 222.26116,166.62499 h 4.28863 l 0.29972,-0.89917 v -1.80144 h 5.6503 v -50.00005 h -5.6503 v -1.80144 l -0.29972,-0.89917 h -4.28863" />
  <path
     id="path2711"
     style="fill:none;stroke:#ff0000;stroke-width:0.1"
     d="m 222.25326,171.37261 c 4.1023,-1.22361 8.74492,-2.12694 11.9608,-1.85077 1.80569,0.15507 3.43695,0.39452 4.92783,0.73089" />
  <path
     id="path2713"
     style="fill:none;stroke:#ff0000;stroke-width:0.1"
     d="m 221.79607,190.77325 0.0108,-5.44153 c -3.20653,-3.42911 -6.60542,-5.03076 -9.26455,-9.34567 l 1.10484,-0.94258 c 1.12681,-0.96143 4.34213,-2.35943 8.0904,-3.51451" />
  <path
     id="path2715"
     style="fill:none;stroke:#ff0000;stroke-width:0.1"
     d="m 232.44304,212.49964 c -7.00922,0.0261 -15.56621,-1.36803 -18.52732,-3.32133 l -1.41572,-0.93428 0.78187,-1.48984 c 0.43012,-0.81959 2.51882,-3.41739 4.64106,-5.77276 l 3.85868,-4.28244 0.0124,-4.89014 0.001,-0.53589" />
  <path
     id="path2717"
     style="fill:none;stroke:#ff0000;stroke-width:0.1"
     d="m 262.06794,207.28741 c -3.40478,-1.50749 -6.90174,-2.73404 -11.71811,-2.59667 l -1.47743,1.77406 c -1.99496,2.39527 -6.68428,4.8645 -10.59781,5.58054 -1.52485,0.27899 -3.35137,0.42236 -5.31655,0.44977" />
  <path
     id="path2719"
     style="fill:none;stroke:#ff0000;stroke-width:0.1"
     d="m 290.02371,210.92871 c -3.49793,0.58731 -6.93479,1.11473 -12.41296,1.28561 -6.57503,-0.50461 -10.78428,-2.78338 -15.04409,-4.70398" />
  <path
     id="path2721"
     style="fill:none;stroke:#ff0000;stroke-width:0.1"
     d="m 310.92387,184.36768 c -0.64169,1.07603 -1.32024,1.28853 -0.82826,1.58716 1.40183,0.85098 2.31263,3.46932 2.33062,6.10661 0.0152,2.2243 -0.64777,4.50231 -1.75133,5.34075 l -0.9493,0.72141 0.95344,0.72501 c 1.15011,0.87384 1.74398,2.94902 1.74719,5.0545 0.004,1.91788 -0.48125,3.86061 -1.47848,4.94231 -1.13302,1.22904 -0.89716,1.21528 -6.24819,0.36123 -1.29298,-0.2064 -5.0574,0.1764 -11.09131,1.12758 -1.07737,0.16982 -2.09271,0.34281 -3.09507,0.51203" />
  <path
     id="path2723"
     style="fill:none;stroke:#ff0000;stroke-width:0.1"
     d="m 306.71924,144.19726 c -0.5235,3.98652 -0.0936,8.33972 1.72634,13.98874 2.97877,6.14632 3.97896,11.31893 3.98065,17.90433 -0.0114,2.69401 -0.34224,5.08759 -0.99168,7.12825 -0.0823,0.2586 -0.17401,0.48915 -0.27042,0.69535" />
  <path
     id="path2725"
     style="fill:none;stroke:#ff0000;stroke-width:0.1"
     d="m 212.49999,76.326047 v 24.749903 0 h 5.64979 v 1.80144 l 0.29972,0.89917 h 3.31142" />
  <path
     id="path3184"
     style="fill:none;stroke:#ff0000;stroke-width:0.1"
     d="m 221.76092,48.375302 h -3.31142 l -0.29972,0.89916 v 1.80145 h -5.64979 v 24.749905" />
  <path
     id="path2727"
     style="fill:none;stroke:#ff0000;stroke-width:0.1"
     d="m 222.26116,103.77656 h 4.28863 l 0.29972,-0.89917 v -1.80144 h 5.6503 V 51.07591 h -5.6503 v -1.80145 l -0.29972,-0.89916 h -4.28863" />
  <path
     id="path2729"
     style="fill:none;stroke:#ff0000;stroke-width:0.1"
     d="m 222.25327,43.6274 c 4.1023,1.22361 8.74491,2.12693 11.96079,1.85077 1.80569,-0.15506 3.43696,-0.39452 4.92783,-0.73089" />
  <path
     id="path2731"
     style="fill:none;stroke:#ff0000;stroke-width:0.1"
     d="m 221.79648,24.43347 0.0104,5.23483 c -3.20653,3.42911 -6.60542,5.03076 -9.26455,9.34567 l 1.10484,0.94258 c 1.12682,0.96144 4.34215,2.35944 8.09044,3.51452" />
  <path
     id="path2733"
     style="fill:none;stroke:#ff0000;stroke-width:0.1"
     d="m 232.44305,2.50039 c -7.00923,-0.0261 -15.56621,1.36802 -18.52732,3.32133 L 212.5,6.756 l 0.78187,1.48984 c 0.43012,0.81959 2.51882,3.41739 4.64106,5.77276 l 3.85868,4.28244 0.0124,4.89014 0.001,0.74258" />
  <path
     id="path2735"
     style="fill:none;stroke:#ff0000;stroke-width:0.1"
     d="m 262.06804,7.71258 c -3.40482,1.50751 -6.90179,2.73408 -11.7182,2.59671 L 248.87241,8.53523 C 246.87745,6.13996 242.18813,3.67073 238.27459,2.95469 236.74974,2.6757 234.92323,2.53232 232.95804,2.50492" />
  <path
     id="path2737"
     style="fill:none;stroke:#ff0000;stroke-width:0.1"
     d="M 290.02376,4.07132 C 286.52582,3.484 283.08895,2.95659 277.61076,2.7857 271.03579,3.2903 266.82656,5.56904 262.56679,7.48963" />
  <path
     id="path2739"
     style="fill:none;stroke:#ff0000;stroke-width:0.1"
     d="m 310.90951,30.6084 c -0.63739,-1.05527 -1.30221,-1.26682 -0.8139,-1.56322 1.40183,-0.85098 2.31263,-3.46932 2.33062,-6.10661 0.0152,-2.2243 -0.64777,-4.50231 -1.75133,-5.34075 l -0.9493,-0.72141 0.95344,-0.72501 c 1.15011,-0.87384 1.74398,-2.94902 1.74719,-5.0545 0.004,-1.91788 -0.48125,-3.86061 -1.47848,-4.94231 -1.13302,-1.22904 -0.89716,-1.21528 -6.24819,-0.36123 -1.29298,0.2064 -5.0574,-0.1764 -11.09131,-1.12758 -1.07738,-0.16983 -2.09273,-0.34281 -3.0951,-0.51203" />
  <path
     id="path2741"
     style="fill:none;stroke:#ff0000;stroke-width:0.1"
     d="m 306.71924,70.80276 c -0.5235,-3.98652 -0.0936,-8.33972 1.72634,-13.98875 2.97877,-6.14631 3.97896,-11.31893 3.98065,-17.90433 -0.0114,-2.694 -0.34224,-5.08758 -0.99168,-7.12824 -0.0862,-0.2708 -0.18267,-0.51083 -0.28408,-0.72435" />
  <path
     id="path2743"
     style="fill:none;stroke:#ff0000;stroke-width:0.1"
     d="m 303.41236,105.17215 c 5.54114,-2.46067 9.01935,-6.36198 9.01457,-10.16409 l 0.006,-8.8868 c -2.75262,-5.5938 -4.90347,-9.96029 -5.64326,-14.82155" />
  <path
     id="path2745"
     style="fill:none;stroke:#ff0000;stroke-width:0.1"
     d="m 293.75787,71.30199 c 0.42864,5.67951 2.08005,10.76811 4.51385,15.05389 1.75879,3.09714 0.78081,6.18666 -2.42219,7.30253 -8.60667,2.99844 -11.22456,6.23367 -9.73676,10.16091 1.9958,5.26818 10.51942,3.46834 12.66732,2.93228 1.47025,-0.36694 2.85362,-0.82764 4.13372,-1.3643" />
  <path
     id="path2747"
     style="fill:none;stroke:#ff0000;stroke-width:0.1"
     d="M 275.81137,58.5301 H 239.62444" />
  <path
     id="path2749"
     style="fill:none;stroke:#ff0000;stroke-width:0.1"
     d="m 285.20047,79.77235 v -8.69198 h 1.80144 l 0.89917,-0.29972 v -8.10028 l -0.89917,-0.29972 h -1.80144 V 58.5301 h -8.88887" />
  <path
     id="path2751"
     style="fill:none;stroke:#ff0000;stroke-width:0.1"
     d="m 276.28639,57.59525 c 1.29094,0.22185 2.66435,0.38068 4.1306,0.47639 4.07978,0.2663 7.45123,-0.51169 12.18841,-1.37183 1.37624,-0.24989 2.64216,-0.66404 2.87114,-0.66404 -1.53069,5.22575 -2.03931,10.18469 -1.75306,14.76749" />
  <path
     id="path2753"
     style="fill:none;stroke:#ff0000;stroke-width:0.1"
     d="m 239.64278,44.62932 c 3.37621,-0.82922 6.0218,-2.1846 8.35804,-4.22112 l 1.62574,-1.41749 c 6.98776,1.96231 7.64622,4.45033 10.47057,8.37742 3.87963,5.3944 8.47125,8.77962 15.67555,10.1347" />
  <path
     id="path2755"
     style="fill:none;stroke:#ff0000;stroke-width:0.1"
     d="m 303.41236,109.82786 c 5.54114,2.46067 9.01935,6.36199 9.01457,10.16409 l 0.006,8.8868 c -2.75271,5.59399 -4.9036,9.96059 -5.64333,14.82206" />
  <path
     id="path2757"
     style="fill:none;stroke:#ff0000;stroke-width:0.1"
     d="m 293.75787,143.69802 c 0.42864,-5.6795 2.08005,-10.76811 4.51385,-15.05389 1.75879,-3.09714 0.78081,-6.18666 -2.42219,-7.30253 -8.60667,-2.99844 -11.22456,-6.23366 -9.73676,-10.16091 1.9958,-5.26817 10.51942,-3.46834 12.66732,-2.93228 1.47025,0.36694 2.85362,0.82764 4.13372,1.3643" />
  <path
     id="path2759"
     style="fill:none;stroke:#ff0000;stroke-width:0.1"
     d="m 276.3116,156.47019 h 8.88887 v -3.85055 h 1.80144 l 0.89917,-0.29972 v -8.10028 l -0.89917,-0.29972 h -1.80144 v -9.49089" />
  <path
     id="path2761"
     style="fill:none;stroke:#ff0000;stroke-width:0.1"
     d="m 239.62444,156.47019 h 36.18694" />
  <path
     id="path2763"
     style="fill:none;stroke:#ff0000;stroke-width:0.1"
     d="m 276.2863,157.40477 c 1.29097,-0.22185 2.6644,-0.38069 4.13069,-0.4764 4.07978,-0.2663 7.45123,0.51169 12.18841,1.37183 1.37624,0.24989 2.64216,0.66404 2.87114,0.66404 -1.53075,-5.22594 -2.03935,-10.18506 -1.75302,-14.768" />
  <path
     id="path2765"
     style="fill:none;stroke:#ff0000;stroke-width:0.1"
     d="m 239.64278,170.3707 c 3.37621,0.82921 6.0218,2.18459 8.35804,4.22111 l 1.62574,1.41749 c 6.98776,-1.96231 7.64622,-4.45033 10.47057,-8.37742 3.87964,-5.39441 8.47127,-8.77963 15.67559,-10.13471" />
  <path
     id="path2767"
     style="fill:none;stroke:#ff0000;stroke-width:0.1"
     d="m 229.40304,182.74478 c 2.79881,1.90281 7.091,1.55398 9.66917,0.30491 -0.12124,0.90048 -0.42909,1.77932 -0.9219,2.56159 -0.88931,1.41174 -1.21931,1.59348 -2.76263,1.52082 -2.79299,-0.13128 -4.67531,-1.22108 -5.54591,-3.21117 -0.21128,-0.48297 -0.35135,-0.84899 -0.43873,-1.17615 v 0" />
  <path
     id="path2769"
     style="fill:none;stroke:#ff0000;stroke-width:0.1"
     d="m 308.62265,191.31907 v 8.1 h -2.70086 v -8.1 h 2.70086 v 0" />
  <path
     id="path2771"
     style="fill:none;stroke:#ff0000;stroke-width:0.1"
     d="m 308.62279,171.31954 v 8.1 h -2.70086 v -8.1 h 2.70086 v 0" />
  <path
     id="path2773"
     style="fill:none;stroke:#ff0000;stroke-width:0.1"
     d="m 296.37238,205.36929 h 8.1 v 2.70086 h -8.1 v -2.70086 0" />
  <path
     id="path2775"
     style="fill:none;stroke:#ff0000;stroke-width:0.1"
     d="m 270.2732,205.36929 h 8.1 v 2.70086 h -8.1 v -2.70086 0" />
  <path
     id="path2777"
     style="fill:none;stroke:#ff0000;stroke-width:0.1"
     d="m 296.37238,162.66843 h 8.1 v 2.70086 h -8.1 v -2.70086 0" />
  <path
     id="path2779"
     style="fill:none;stroke:#ff0000;stroke-width:0.1"
     d="m 270.2732,162.66843 h 8.1 v 2.70086 h -8.1 v -2.70086 0" />
</svg>
